<?xml version="1.0" encoding="UTF-8" standalone="no"?>
<!DOCTYPE svg PUBLIC "-//W3C//DTD SVG 1.1//EN"
 "http://www.w3.org/Graphics/SVG/1.1/DTD/svg11.dtd">
<!-- Generated by graphviz version 2.43.0 (0)
 -->
<!-- Title: G Pages: 1 -->
<svg width="154pt" height="499pt"
 viewBox="0.00 0.00 154.00 499.00" xmlns="http://www.w3.org/2000/svg" xmlns:xlink="http://www.w3.org/1999/xlink">
<g id="graph0" class="graph" transform="scale(1 1) rotate(0) translate(4 495)">
<title>G</title>
<polygon fill="white" stroke="transparent" points="-4,4 -4,-495 150,-495 150,4 -4,4"/>
<text text-anchor="middle" x="73" y="-7.8" font-family="italic" font-size="14.00">graphop</text>
<!-- a -->
<g id="node1" class="node">
<title>a</title>
<polygon fill="none" stroke="black" points="131,-491 77,-491 77,-455 131,-455 131,-491"/>
<text text-anchor="middle" x="104" y="-469.3" font-family="Times,serif" font-size="14.00">a</text>
</g>
<!-- mul1 -->
<g id="node2" class="node">
<title>mul1</title>
<ellipse fill="none" stroke="black" cx="42" cy="-401" rx="34.39" ry="18"/>
<text text-anchor="middle" x="42" y="-397.3" font-family="italic" font-size="14.00">mul1</text>
</g>
<!-- a&#45;&gt;mul1 -->
<g id="edge1" class="edge">
<title>a&#45;&gt;mul1</title>
<path fill="none" stroke="black" d="M88.67,-454.7C80.83,-445.84 71.17,-434.93 62.67,-425.34"/>
<polygon fill="black" stroke="black" points="65.13,-422.84 55.88,-417.67 59.89,-427.48 65.13,-422.84"/>
</g>
<!-- sub1 -->
<g id="node5" class="node">
<title>sub1</title>
<ellipse fill="none" stroke="black" cx="73" cy="-257" rx="33.29" ry="18"/>
<text text-anchor="middle" x="73" y="-253.3" font-family="italic" font-size="14.00">sub1</text>
</g>
<!-- a&#45;&gt;sub1 -->
<g id="edge2" class="edge">
<title>a&#45;&gt;sub1</title>
<path fill="none" stroke="black" d="M101.81,-454.58C98.04,-425.02 89.99,-363.15 82,-311 80.71,-302.57 79.19,-293.4 77.78,-285.1"/>
<polygon fill="black" stroke="black" points="81.21,-284.42 76.06,-275.16 74.31,-285.61 81.21,-284.42"/>
</g>
<!-- ab -->
<g id="node4" class="node">
<title>ab</title>
<polygon fill="none" stroke="black" points="73,-347 19,-347 19,-311 73,-311 73,-347"/>
<text text-anchor="middle" x="46" y="-325.3" font-family="Times,serif" font-size="14.00">ab</text>
</g>
<!-- mul1&#45;&gt;ab -->
<g id="edge3" class="edge">
<title>mul1&#45;&gt;ab</title>
<path fill="none" stroke="black" d="M42.99,-382.7C43.43,-374.98 43.96,-365.71 44.45,-357.11"/>
<polygon fill="black" stroke="black" points="47.95,-357.29 45.02,-347.1 40.96,-356.89 47.95,-357.29"/>
</g>
<!-- b -->
<g id="node3" class="node">
<title>b</title>
<polygon fill="none" stroke="black" points="59,-491 5,-491 5,-455 59,-455 59,-491"/>
<text text-anchor="middle" x="32" y="-469.3" font-family="Times,serif" font-size="14.00">b</text>
</g>
<!-- b&#45;&gt;mul1 -->
<g id="edge4" class="edge">
<title>b&#45;&gt;mul1</title>
<path fill="none" stroke="black" d="M34.47,-454.7C35.57,-446.98 36.9,-437.71 38.13,-429.11"/>
<polygon fill="black" stroke="black" points="41.61,-429.5 39.56,-419.1 34.68,-428.51 41.61,-429.5"/>
</g>
<!-- ab&#45;&gt;sub1 -->
<g id="edge5" class="edge">
<title>ab&#45;&gt;sub1</title>
<path fill="none" stroke="black" d="M52.67,-310.7C55.71,-302.81 59.38,-293.3 62.76,-284.55"/>
<polygon fill="black" stroke="black" points="66.07,-285.69 66.4,-275.1 59.54,-283.17 66.07,-285.69"/>
</g>
<!-- a_minus_ab -->
<g id="node6" class="node">
<title>a_minus_ab</title>
<polygon fill="none" stroke="black" points="114.5,-203 31.5,-203 31.5,-167 114.5,-167 114.5,-203"/>
<text text-anchor="middle" x="73" y="-181.3" font-family="Times,serif" font-size="14.00">a_minus_ab</text>
</g>
<!-- sub1&#45;&gt;a_minus_ab -->
<g id="edge6" class="edge">
<title>sub1&#45;&gt;a_minus_ab</title>
<path fill="none" stroke="black" d="M73,-238.7C73,-230.98 73,-221.71 73,-213.11"/>
<polygon fill="black" stroke="black" points="76.5,-213.1 73,-203.1 69.5,-213.1 76.5,-213.1"/>
</g>
<!-- abspow1 -->
<g id="node7" class="node">
<title>abspow1</title>
<ellipse fill="none" stroke="black" cx="73" cy="-113" rx="51.99" ry="18"/>
<text text-anchor="middle" x="73" y="-109.3" font-family="italic" font-size="14.00">abspow1</text>
</g>
<!-- a_minus_ab&#45;&gt;abspow1 -->
<g id="edge7" class="edge">
<title>a_minus_ab&#45;&gt;abspow1</title>
<path fill="none" stroke="black" d="M73,-166.7C73,-158.98 73,-149.71 73,-141.11"/>
<polygon fill="black" stroke="black" points="76.5,-141.1 73,-131.1 69.5,-141.1 76.5,-141.1"/>
</g>
<!-- abs_a_minus_ab_cubed -->
<g id="node8" class="node">
<title>abs_a_minus_ab_cubed</title>
<polygon fill="none" stroke="black" points="146,-59 0,-59 0,-23 146,-23 146,-59"/>
<text text-anchor="middle" x="73" y="-37.3" font-family="Times,serif" font-size="14.00">abs_a_minus_ab_cubed</text>
</g>
<!-- abspow1&#45;&gt;abs_a_minus_ab_cubed -->
<g id="edge8" class="edge">
<title>abspow1&#45;&gt;abs_a_minus_ab_cubed</title>
<path fill="none" stroke="black" d="M73,-94.7C73,-86.98 73,-77.71 73,-69.11"/>
<polygon fill="black" stroke="black" points="76.5,-69.1 73,-59.1 69.5,-69.1 76.5,-69.1"/>
</g>
</g>
</svg>
