<?xml version="1.0" encoding="UTF-8" standalone="no"?>
<!DOCTYPE svg PUBLIC "-//W3C//DTD SVG 1.1//EN"
 "http://www.w3.org/Graphics/SVG/1.1/DTD/svg11.dtd">
<!-- Generated by graphviz version 2.43.0 (0)
 -->
<!-- Title: G Pages: 1 -->
<svg width="134pt" height="355pt"
 viewBox="0.00 0.00 134.00 355.00" xmlns="http://www.w3.org/2000/svg" xmlns:xlink="http://www.w3.org/1999/xlink">
<g id="graph0" class="graph" transform="scale(1 1) rotate(0) translate(4 351)">
<title>G</title>
<polygon fill="white" stroke="transparent" points="-4,4 -4,-351 130,-351 130,4 -4,4"/>
<text text-anchor="middle" x="63" y="-7.8" font-family="italic" font-size="14.00">pipeline</text>
<!-- a -->
<g id="node1" class="node">
<title>a</title>
<polygon fill="none" stroke="black" points="126,-347 72,-347 72,-311 126,-311 126,-347"/>
<text text-anchor="middle" x="99" y="-325.3" font-family="Times,serif" font-size="14.00">a</text>
</g>
<!-- mul1 -->
<g id="node2" class="node">
<title>mul1</title>
<ellipse fill="none" stroke="black" cx="37" cy="-257" rx="34.39" ry="18"/>
<text text-anchor="middle" x="37" y="-253.3" font-family="italic" font-size="14.00">mul1</text>
</g>
<!-- a&#45;&gt;mul1 -->
<g id="edge1" class="edge">
<title>a&#45;&gt;mul1</title>
<path fill="none" stroke="black" d="M83.67,-310.7C75.83,-301.84 66.17,-290.93 57.67,-281.34"/>
<polygon fill="black" stroke="black" points="60.13,-278.84 50.88,-273.67 54.89,-283.48 60.13,-278.84"/>
</g>
<!-- sub1 -->
<g id="node5" class="node">
<title>sub1</title>
<ellipse fill="none" stroke="black" cx="68" cy="-113" rx="33.29" ry="18"/>
<text text-anchor="middle" x="68" y="-109.3" font-family="italic" font-size="14.00">sub1</text>
</g>
<!-- a&#45;&gt;sub1 -->
<g id="edge2" class="edge">
<title>a&#45;&gt;sub1</title>
<path fill="none" stroke="black" d="M96.81,-310.58C93.04,-281.02 84.99,-219.15 77,-167 75.71,-158.57 74.19,-149.4 72.78,-141.1"/>
<polygon fill="black" stroke="black" points="76.21,-140.42 71.06,-131.16 69.31,-141.61 76.21,-140.42"/>
</g>
<!-- ab -->
<g id="node4" class="node">
<title>ab</title>
<polygon fill="none" stroke="black" points="68,-203 14,-203 14,-167 68,-167 68,-203"/>
<text text-anchor="middle" x="41" y="-181.3" font-family="Times,serif" font-size="14.00">ab</text>
</g>
<!-- mul1&#45;&gt;ab -->
<g id="edge3" class="edge">
<title>mul1&#45;&gt;ab</title>
<path fill="none" stroke="black" d="M37.99,-238.7C38.43,-230.98 38.96,-221.71 39.45,-213.11"/>
<polygon fill="black" stroke="black" points="42.95,-213.29 40.02,-203.1 35.96,-212.89 42.95,-213.29"/>
</g>
<!-- b -->
<g id="node3" class="node">
<title>b</title>
<polygon fill="none" stroke="black" points="54,-347 0,-347 0,-311 54,-311 54,-347"/>
<text text-anchor="middle" x="27" y="-325.3" font-family="Times,serif" font-size="14.00">b</text>
</g>
<!-- b&#45;&gt;mul1 -->
<g id="edge4" class="edge">
<title>b&#45;&gt;mul1</title>
<path fill="none" stroke="black" d="M29.47,-310.7C30.57,-302.98 31.9,-293.71 33.13,-285.11"/>
<polygon fill="black" stroke="black" points="36.61,-285.5 34.56,-275.1 29.68,-284.51 36.61,-285.5"/>
</g>
<!-- ab&#45;&gt;sub1 -->
<g id="edge5" class="edge">
<title>ab&#45;&gt;sub1</title>
<path fill="none" stroke="black" d="M47.67,-166.7C50.71,-158.81 54.38,-149.3 57.76,-140.55"/>
<polygon fill="black" stroke="black" points="61.07,-141.69 61.4,-131.1 54.54,-139.17 61.07,-141.69"/>
</g>
<!-- a_minus_ab -->
<g id="node6" class="node">
<title>a_minus_ab</title>
<polygon fill="none" stroke="black" points="109.5,-59 26.5,-59 26.5,-23 109.5,-23 109.5,-59"/>
<text text-anchor="middle" x="68" y="-37.3" font-family="Times,serif" font-size="14.00">a_minus_ab</text>
</g>
<!-- sub1&#45;&gt;a_minus_ab -->
<g id="edge6" class="edge">
<title>sub1&#45;&gt;a_minus_ab</title>
<path fill="none" stroke="black" d="M68,-94.7C68,-86.98 68,-77.71 68,-69.11"/>
<polygon fill="black" stroke="black" points="71.5,-69.1 68,-59.1 64.5,-69.1 71.5,-69.1"/>
</g>
</g>
</svg>
