<?xml version="1.0" encoding="UTF-8" standalone="no"?>
<!DOCTYPE svg PUBLIC "-//W3C//DTD SVG 1.1//EN"
 "http://www.w3.org/Graphics/SVG/1.1/DTD/svg11.dtd">
<!-- Generated by graphviz version 2.43.0 (0)
 -->
<!-- Title: G Pages: 1 -->
<svg width="476pt" height="598pt"
 viewBox="0.00 0.00 476.00 598.00" xmlns="http://www.w3.org/2000/svg" xmlns:xlink="http://www.w3.org/1999/xlink">
<g id="graph0" class="graph" transform="scale(1 1) rotate(0) translate(4 594)">
<title>G</title>
<polygon fill="white" stroke="transparent" points="-4,4 -4,-594 472,-594 472,4 -4,4"/>
<text text-anchor="middle" x="234" y="-7.8" font-family="italic" font-size="14.00">bigger_graph</text>
<g id="clust1" class="cluster">
<title>cluster_after prunning</title>
<polygon fill="none" stroke="black" points="8,-31 8,-582 242,-582 242,-31 8,-31"/>
<text text-anchor="middle" x="125" y="-566.8" font-family="italic" font-size="14.00">after prunning</text>
</g>
<!-- ab -->
<g id="node1" class="node">
<title>ab</title>
<polygon fill="none" stroke="black" points="304,-313 250,-313 250,-277 304,-277 304,-313"/>
<text text-anchor="middle" x="277" y="-291.3" font-family="Times,serif" font-size="14.00">ab</text>
</g>
<!-- abs_a_minus_ab_cubed -->
<g id="node2" class="node">
<title>abs_a_minus_ab_cubed</title>
<polygon fill="none" stroke="black" points="468,-313 322,-313 322,-277 468,-277 468,-313"/>
<text text-anchor="middle" x="395" y="-291.3" font-family="Times,serif" font-size="14.00">abs_a_minus_ab_cubed</text>
</g>
<!-- a -->
<g id="node3" class="node">
<title>a</title>
<polygon fill="none" stroke="#990000" stroke-width="3" points="133,-527.44 160,-515 187,-527.44 186.97,-547.56 133.03,-547.56 133,-527.44"/>
<text text-anchor="middle" x="160" y="-529.3" font-family="Times,serif" font-size="14.00">a</text>
</g>
<!-- graphop -->
<g id="node4" class="node">
<title>graphop</title>
<polygon fill="wheat" stroke="black" points="185.88,-350.05 189.11,-350.15 192.3,-350.3 195.45,-350.49 198.54,-350.74 201.56,-351.03 204.5,-351.36 207.34,-351.75 210.07,-352.18 212.69,-352.65 215.18,-353.16 217.54,-353.71 219.76,-354.31 221.83,-354.94 223.74,-355.61 225.49,-356.31 227.08,-357.04 228.5,-357.8 229.75,-358.59 230.83,-359.41 231.74,-360.25 232.47,-361.11 233.03,-361.99 233.42,-362.89 233.65,-363.8 233.71,-364.72 233.61,-365.65 233.35,-366.59 232.95,-367.53 232.4,-368.47 231.71,-369.41 230.89,-370.35 229.94,-371.28 228.88,-372.2 227.7,-373.11 226.42,-374.01 225.04,-374.89 223.57,-375.75 222.02,-376.59 220.39,-377.41 218.69,-378.2 216.93,-378.96 215.12,-379.69 213.25,-380.39 211.33,-381.06 209.38,-381.69 207.39,-382.29 205.37,-382.84 203.33,-383.35 201.26,-383.82 199.17,-384.25 197.07,-384.64 194.95,-384.97 192.82,-385.26 190.68,-385.51 188.54,-385.7 186.39,-385.85 184.23,-385.95 182.08,-386 179.92,-386 177.77,-385.95 175.61,-385.85 173.46,-385.7 171.32,-385.51 169.18,-385.26 167.05,-384.97 164.93,-384.64 162.83,-384.25 160.74,-383.82 158.67,-383.35 156.63,-382.84 154.61,-382.29 152.62,-381.69 150.67,-381.06 148.75,-380.39 146.88,-379.69 145.07,-378.96 143.31,-378.2 141.61,-377.41 139.98,-376.59 138.43,-375.75 136.96,-374.89 135.58,-374.01 134.3,-373.11 133.12,-372.2 132.06,-371.28 131.11,-370.35 130.29,-369.41 129.6,-368.47 129.05,-367.53 128.65,-366.59 128.39,-365.65 128.29,-364.72 128.35,-363.8 128.58,-362.89 128.97,-361.99 129.53,-361.11 130.26,-360.25 131.17,-359.41 132.25,-358.59 133.5,-357.8 134.92,-357.04 136.51,-356.31 138.26,-355.61 140.17,-354.94 142.24,-354.31 144.46,-353.71 146.82,-353.16 149.31,-352.65 151.93,-352.18 154.66,-351.75 157.5,-351.36 160.44,-351.03 163.46,-350.74 166.55,-350.49 169.7,-350.3 172.89,-350.15 176.12,-350.05 179.37,-350 182.63,-350 185.88,-350.05"/>
<text text-anchor="middle" x="181" y="-364.3" font-family="italic" font-size="14.00">graphop</text>
</g>
<!-- a&#45;&gt;graphop -->
<g id="edge1" class="edge">
<title>a&#45;&gt;graphop</title>
<path fill="none" stroke="black" stroke-dasharray="5,2" d="M164.41,-516.77C168.45,-502.11 174.22,-479.24 177,-459 179.89,-437.99 180.84,-413.98 181.09,-396.05"/>
<polygon fill="black" stroke="black" points="184.59,-396.03 181.17,-386 177.59,-395.98 184.59,-396.03"/>
</g>
<!-- b -->
<g id="node5" class="node">
<title>b</title>
<polygon fill="none" stroke="#990000" stroke-width="3" points="70,-435.44 97,-423 124,-435.44 123.97,-455.56 70.03,-455.56 70,-435.44"/>
<text text-anchor="middle" x="97" y="-437.3" font-family="Times,serif" font-size="14.00">b</text>
</g>
<!-- a&#45;&gt;b -->
<g id="edge10" class="edge">
<title>a&#45;&gt;b</title>
<path fill="none" stroke="#009999" stroke-width="3" stroke-dasharray="1,5" d="M150.97,-519.11C140.95,-504.78 124.59,-481.41 112.5,-464.15"/>
<polygon fill="#009999" stroke="#009999" stroke-width="3" points="106.63,-455.76 116.05,-461.37 110.32,-459.28 113.18,-463.38 112.36,-463.95 111.54,-464.52 108.68,-460.43 108.68,-466.53 106.63,-455.76 106.63,-455.76"/>
<text text-anchor="middle" x="140.5" y="-482.6" font-family="bold" font-size="18.00" fill="#009999">2</text>
</g>
<!-- graphop&#45;&gt;ab -->
<g id="edge2" class="edge">
<title>graphop&#45;&gt;ab</title>
<path fill="none" stroke="black" d="M202.78,-350.89C215.43,-341.54 231.57,-329.6 245.57,-319.24"/>
<polygon fill="black" stroke="black" points="248,-321.8 253.96,-313.04 243.84,-316.17 248,-321.8"/>
</g>
<!-- graphop&#45;&gt;abs_a_minus_ab_cubed -->
<g id="edge4" class="edge">
<title>graphop&#45;&gt;abs_a_minus_ab_cubed</title>
<path fill="none" stroke="black" d="M219.75,-354.14C251.6,-343.58 297.28,-328.42 334.02,-316.23"/>
<polygon fill="black" stroke="black" points="335.25,-319.51 343.64,-313.04 333.05,-312.87 335.25,-319.51"/>
</g>
<!-- graphop&#45;&gt;a -->
<g id="edge9" class="edge">
<title>graphop&#45;&gt;a</title>
<path fill="none" stroke="#009999" stroke-width="3" stroke-dasharray="1,5" d="M172.5,-386.03C167.79,-396.42 162.41,-410.15 160,-423 154.78,-450.81 155.66,-483.32 157.29,-505.55"/>
<polygon fill="#009999" stroke="#009999" stroke-width="3" points="158.13,-515.58 152.81,-505.99 156.72,-510.68 156.3,-505.69 157.3,-505.61 158.29,-505.53 158.71,-510.51 161.78,-505.23 158.13,-515.58 158.13,-515.58"/>
<text text-anchor="middle" x="166.5" y="-436.6" font-family="bold" font-size="18.00" fill="#009999">1</text>
</g>
<!-- a_minus_ab -->
<g id="node6" class="node">
<title>a_minus_ab</title>
<polygon fill="none" stroke="#990000" stroke-width="3" points="223.5,-313 140.5,-313 140.5,-277 223.5,-277 223.5,-313"/>
<text text-anchor="middle" x="182" y="-291.3" font-family="Times,serif" font-size="14.00">a_minus_ab</text>
</g>
<!-- graphop&#45;&gt;a_minus_ab -->
<g id="edge3" class="edge">
<title>graphop&#45;&gt;a_minus_ab</title>
<path fill="none" stroke="black" d="M181.24,-349.81C181.36,-341.79 181.49,-332.05 181.62,-323.07"/>
<polygon fill="black" stroke="black" points="185.12,-323.08 181.76,-313.03 178.12,-322.98 185.12,-323.08"/>
</g>
<!-- b&#45;&gt;graphop -->
<g id="edge5" class="edge">
<title>b&#45;&gt;graphop</title>
<path fill="none" stroke="black" stroke-dasharray="5,2" d="M110.12,-428.91C122.04,-418.84 139.96,-403.69 154.8,-391.15"/>
<polygon fill="black" stroke="black" points="157.29,-393.62 162.67,-384.49 152.77,-388.28 157.29,-393.62"/>
</g>
<!-- sub2 -->
<g id="node7" class="node">
<title>sub2</title>
<ellipse fill="wheat" stroke="black" cx="125" cy="-130" rx="33.29" ry="18"/>
<text text-anchor="middle" x="125" y="-126.3" font-family="italic" font-size="14.00">sub2</text>
</g>
<!-- b&#45;&gt;sub2 -->
<g id="edge11" class="edge">
<title>b&#45;&gt;sub2</title>
<path fill="none" stroke="#009999" stroke-width="3" stroke-dasharray="1,5" d="M89.72,-426.28C82.98,-412.28 74,-389.73 74,-369 74,-369 74,-369 74,-202 74,-182.72 86.56,-165.08 99.22,-152.21"/>
<polygon fill="#009999" stroke="#009999" stroke-width="3" points="106.59,-145.21 102.44,-155.36 103.65,-149.38 100.03,-152.83 99.34,-152.1 98.65,-151.38 102.27,-147.93 96.24,-148.84 106.59,-145.21 106.59,-145.21"/>
<text text-anchor="middle" x="80.5" y="-290.6" font-family="bold" font-size="18.00" fill="#009999">3</text>
</g>
<!-- a_minus_ab&#45;&gt;sub2 -->
<g id="edge6" class="edge">
<title>a_minus_ab&#45;&gt;sub2</title>
<path fill="none" stroke="black" d="M189.5,-276.73C197.89,-255 209.17,-216.69 200,-185 194.67,-166.58 177.96,-153.58 161.67,-144.97"/>
<polygon fill="black" stroke="black" points="162.74,-141.6 152.21,-140.39 159.69,-147.9 162.74,-141.6"/>
</g>
<!-- c -->
<g id="node8" class="node">
<title>c</title>
<polygon fill="none" stroke="#990000" stroke-width="3" points="93,-197.44 120,-185 147,-197.44 146.97,-217.56 93.03,-217.56 93,-197.44"/>
<text text-anchor="middle" x="120" y="-199.3" font-family="Times,serif" font-size="14.00">c</text>
</g>
<!-- a_minus_ab&#45;&gt;c -->
<g id="edge13" class="edge">
<title>a_minus_ab&#45;&gt;c</title>
<path fill="none" stroke="#009999" stroke-width="3" stroke-dasharray="1,5" d="M170.05,-276.65C160.16,-262.3 146.06,-241.83 135.35,-226.28"/>
<polygon fill="#009999" stroke="#009999" stroke-width="3" points="129.48,-217.77 138.86,-223.45 133.14,-221.32 135.98,-225.43 135.16,-226 134.33,-226.57 131.5,-222.45 131.45,-228.56 129.48,-217.77 129.48,-217.77"/>
<text text-anchor="middle" x="162.5" y="-244.6" font-family="bold" font-size="18.00" fill="#009999">5</text>
</g>
<!-- sub2&#45;&gt;a_minus_ab -->
<g id="edge12" class="edge">
<title>sub2&#45;&gt;a_minus_ab</title>
<path fill="none" stroke="#009999" stroke-width="3" stroke-dasharray="1,5" d="M135.74,-147.54C142.21,-157.98 150.27,-171.93 156,-185 166.1,-208.05 167.18,-214.52 173,-239 175.1,-247.83 176.87,-257.58 178.27,-266.39"/>
<polygon fill="#009999" stroke="#009999" stroke-width="3" points="179.79,-276.53 173.86,-267.31 178.06,-271.74 177.32,-266.79 178.31,-266.64 179.3,-266.5 180.04,-271.44 182.76,-265.98 179.79,-276.53 179.79,-276.53"/>
<text text-anchor="middle" x="174.5" y="-198.6" font-family="bold" font-size="18.00" fill="#009999">4</text>
</g>
<!-- a_minus_ab_minus_c -->
<g id="node9" class="node">
<title>a_minus_ab_minus_c</title>
<polygon fill="wheat" stroke="black" points="234.02,-62.56 125,-75 15.98,-62.56 16.08,-42.44 233.92,-42.44 234.02,-62.56"/>
<text text-anchor="middle" x="125" y="-53.3" font-family="Times,serif" font-size="14.00">a_minus_ab_minus_c</text>
</g>
<!-- sub2&#45;&gt;a_minus_ab_minus_c -->
<g id="edge7" class="edge">
<title>sub2&#45;&gt;a_minus_ab_minus_c</title>
<path fill="none" stroke="black" d="M125,-111.81C125,-103.79 125,-94.05 125,-85.07"/>
<polygon fill="black" stroke="black" points="128.5,-85.03 125,-75.03 121.5,-85.03 128.5,-85.03"/>
</g>
<!-- c&#45;&gt;sub2 -->
<g id="edge8" class="edge">
<title>c&#45;&gt;sub2</title>
<path fill="none" stroke="black" d="M121.16,-185.53C121.72,-177.52 122.42,-167.68 123.06,-158.57"/>
<polygon fill="black" stroke="black" points="126.57,-158.59 123.78,-148.37 119.58,-158.1 126.57,-158.59"/>
</g>
</g>
</svg>
