<?xml version="1.0" encoding="UTF-8" standalone="no"?>
<!DOCTYPE svg PUBLIC "-//W3C//DTD SVG 1.1//EN"
 "http://www.w3.org/Graphics/SVG/1.1/DTD/svg11.dtd">
<!-- Generated by graphviz version 2.43.0 (0)
 -->
<!-- Title: G Pages: 1 -->
<svg width="206pt" height="582pt"
 viewBox="0.00 0.00 206.00 582.00" xmlns="http://www.w3.org/2000/svg" xmlns:xlink="http://www.w3.org/1999/xlink">
<g id="graph0" class="graph" transform="scale(1 1) rotate(0) translate(4 578)">
<title>G</title>
<polygon fill="white" stroke="transparent" points="-4,4 -4,-578 202,-578 202,4 -4,4"/>
<text text-anchor="middle" x="99" y="-7.8" font-family="italic" font-size="14.00">graphop</text>
<g id="clust1" class="cluster">
<title>cluster_after prunning</title>
<polygon fill="none" stroke="black" points="8,-161 8,-566 190,-566 190,-161 8,-161"/>
<text text-anchor="middle" x="99" y="-550.8" font-family="italic" font-size="14.00">after prunning</text>
</g>
<!-- abspow1 -->
<g id="node1" class="node">
<title>abspow1</title>
<ellipse fill="none" stroke="black" cx="115" cy="-114" rx="51.99" ry="18"/>
<text text-anchor="middle" x="115" y="-110.3" font-family="italic" font-size="14.00">abspow1</text>
</g>
<!-- abs_a_minus_ab_cubed -->
<g id="node2" class="node">
<title>abs_a_minus_ab_cubed</title>
<polygon fill="none" stroke="black" points="188,-59 42,-59 42,-23 188,-23 188,-59"/>
<text text-anchor="middle" x="115" y="-37.3" font-family="Times,serif" font-size="14.00">abs_a_minus_ab_cubed</text>
</g>
<!-- abspow1&#45;&gt;abs_a_minus_ab_cubed -->
<g id="edge8" class="edge">
<title>abspow1&#45;&gt;abs_a_minus_ab_cubed</title>
<path fill="none" stroke="black" d="M115,-95.81C115,-87.79 115,-78.05 115,-69.07"/>
<polygon fill="black" stroke="black" points="118.5,-69.03 115,-59.03 111.5,-69.03 118.5,-69.03"/>
</g>
<!-- a -->
<g id="node3" class="node">
<title>a</title>
<polygon fill="none" stroke="#990000" stroke-width="3" points="109,-511.44 136,-499 163,-511.44 162.97,-531.56 109.03,-531.56 109,-511.44"/>
<text text-anchor="middle" x="136" y="-513.3" font-family="Times,serif" font-size="14.00">a</text>
</g>
<!-- mul1 -->
<g id="node4" class="node">
<title>mul1</title>
<ellipse fill="wheat" stroke="black" cx="50" cy="-444" rx="34.39" ry="18"/>
<text text-anchor="middle" x="50" y="-440.3" font-family="italic" font-size="14.00">mul1</text>
</g>
<!-- a&#45;&gt;mul1 -->
<g id="edge1" class="edge">
<title>a&#45;&gt;mul1</title>
<path fill="none" stroke="black" d="M122.56,-504.91C110.13,-494.64 91.3,-479.09 75.93,-466.41"/>
<polygon fill="black" stroke="black" points="77.76,-463.38 67.82,-459.71 73.3,-468.78 77.76,-463.38"/>
</g>
<!-- ab -->
<g id="node6" class="node">
<title>ab</title>
<polygon fill="none" stroke="#990000" stroke-width="3" points="142,-370 88,-370 88,-334 142,-334 142,-370"/>
<text text-anchor="middle" x="115" y="-348.3" font-family="Times,serif" font-size="14.00">ab</text>
</g>
<!-- a&#45;&gt;ab -->
<g id="edge12" class="edge">
<title>a&#45;&gt;ab</title>
<path fill="none" stroke="#009999" stroke-width="3" stroke-dasharray="1,5" d="M133.91,-499.78C130.31,-471.87 122.93,-414.51 118.52,-380.35"/>
<polygon fill="#009999" stroke="#009999" stroke-width="3" points="117.21,-370.14 122.95,-379.48 118.84,-374.97 119.48,-379.93 118.49,-380.05 117.49,-380.18 116.85,-375.22 114.02,-380.63 117.21,-370.14 117.21,-370.14"/>
<text text-anchor="middle" x="134.5" y="-439.6" font-family="bold" font-size="18.00" fill="#009999">4</text>
</g>
<!-- sub1 -->
<g id="node7" class="node">
<title>sub1</title>
<ellipse fill="wheat" stroke="black" cx="115" cy="-260" rx="33.29" ry="18"/>
<text text-anchor="middle" x="115" y="-256.3" font-family="italic" font-size="14.00">sub1</text>
</g>
<!-- a&#45;&gt;sub1 -->
<g id="edge2" class="edge">
<title>a&#45;&gt;sub1</title>
<path fill="none" stroke="black" d="M139.1,-499.99C141.07,-489.28 143.52,-474.84 145,-462 145.59,-456.91 150.83,-375.12 151,-370 151.52,-354.01 154.63,-349.58 151,-334 147.06,-317.12 138.63,-299.65 130.92,-286.04"/>
<polygon fill="black" stroke="black" points="133.85,-284.12 125.76,-277.28 127.82,-287.67 133.85,-284.12"/>
</g>
<!-- b -->
<g id="node5" class="node">
<title>b</title>
<polygon fill="none" stroke="#990000" stroke-width="3" points="16,-346.44 43,-334 70,-346.44 69.97,-366.56 16.03,-366.56 16,-346.44"/>
<text text-anchor="middle" x="43" y="-348.3" font-family="Times,serif" font-size="14.00">b</text>
</g>
<!-- mul1&#45;&gt;b -->
<g id="edge9" class="edge">
<title>mul1&#45;&gt;b</title>
<path fill="none" stroke="#009999" stroke-width="3" stroke-dasharray="1,5" d="M41.82,-426.3C39.45,-420.63 37.19,-414.17 36,-408 34.02,-397.73 34.98,-386.26 36.75,-376.47"/>
<polygon fill="#009999" stroke="#009999" stroke-width="3" points="38.88,-366.64 41.16,-377.36 38.8,-371.74 37.74,-376.62 36.76,-376.41 35.78,-376.2 36.84,-371.31 32.36,-375.46 38.88,-366.64 38.88,-366.64"/>
<text text-anchor="middle" x="42.5" y="-393.6" font-family="bold" font-size="18.00" fill="#009999">1</text>
</g>
<!-- mul1&#45;&gt;ab -->
<g id="edge3" class="edge">
<title>mul1&#45;&gt;ab</title>
<path fill="none" stroke="black" d="M61.62,-426.91C71.36,-413.43 85.43,-393.95 96.68,-378.37"/>
<polygon fill="black" stroke="black" points="99.58,-380.33 102.59,-370.18 93.9,-376.23 99.58,-380.33"/>
</g>
<!-- b&#45;&gt;mul1 -->
<g id="edge4" class="edge">
<title>b&#45;&gt;mul1</title>
<path fill="none" stroke="black" d="M47.89,-366.77C49.91,-373.14 52,-380.87 53,-388 54.24,-396.89 54.17,-406.65 53.58,-415.45"/>
<polygon fill="black" stroke="black" points="50.08,-415.31 52.66,-425.59 57.05,-415.95 50.08,-415.31"/>
</g>
<!-- b&#45;&gt;sub1 -->
<g id="edge10" class="edge">
<title>b&#45;&gt;sub1</title>
<path fill="none" stroke="#009999" stroke-width="3" stroke-dasharray="1,5" d="M53.01,-338.49C64.1,-324.62 82.24,-301.95 96.04,-284.7"/>
<polygon fill="#009999" stroke="#009999" stroke-width="3" points="102.41,-276.73 99.68,-287.35 100.07,-281.26 96.95,-285.17 96.17,-284.54 95.38,-283.92 98.51,-280.01 92.65,-281.73 102.41,-276.73 102.41,-276.73"/>
<text text-anchor="middle" x="91.5" y="-301.6" font-family="bold" font-size="18.00" fill="#009999">2</text>
</g>
<!-- ab&#45;&gt;sub1 -->
<g id="edge5" class="edge">
<title>ab&#45;&gt;sub1</title>
<path fill="none" stroke="black" d="M115,-333.65C115,-320.82 115,-303.11 115,-288.38"/>
<polygon fill="black" stroke="black" points="118.5,-288.3 115,-278.3 111.5,-288.3 118.5,-288.3"/>
</g>
<!-- sub1&#45;&gt;a -->
<g id="edge11" class="edge">
<title>sub1&#45;&gt;a</title>
<path fill="none" stroke="#009999" stroke-width="3" stroke-dasharray="1,5" d="M130.61,-276.31C135.79,-282.08 141.2,-288.96 145,-296 153.36,-311.47 153.53,-316.59 156,-334 163.99,-390.37 158.43,-405.55 151,-462 149.71,-471.81 147.07,-482.35 144.37,-491.49"/>
<polygon fill="#009999" stroke="#009999" stroke-width="3" points="141.35,-501.1 140.05,-490.22 141.9,-496.03 143.39,-491.26 144.35,-491.56 145.3,-491.86 143.8,-496.63 148.64,-492.91 141.35,-501.1 141.35,-501.1"/>
<text text-anchor="middle" x="165.5" y="-393.6" font-family="bold" font-size="18.00" fill="#009999">3</text>
</g>
<!-- a_minus_ab -->
<g id="node8" class="node">
<title>a_minus_ab</title>
<polygon fill="wheat" stroke="black" points="181.86,-192.56 115,-205 48.14,-192.56 48.2,-172.44 181.8,-172.44 181.86,-192.56"/>
<text text-anchor="middle" x="115" y="-183.3" font-family="Times,serif" font-size="14.00">a_minus_ab</text>
</g>
<!-- sub1&#45;&gt;a_minus_ab -->
<g id="edge6" class="edge">
<title>sub1&#45;&gt;a_minus_ab</title>
<path fill="none" stroke="black" d="M115,-241.81C115,-233.79 115,-224.05 115,-215.07"/>
<polygon fill="black" stroke="black" points="118.5,-215.03 115,-205.03 111.5,-215.03 118.5,-215.03"/>
</g>
<!-- a_minus_ab&#45;&gt;abspow1 -->
<g id="edge7" class="edge">
<title>a_minus_ab&#45;&gt;abspow1</title>
<path fill="none" stroke="black" d="M115,-172.31C115,-163.82 115,-152.6 115,-142.35"/>
<polygon fill="black" stroke="black" points="118.5,-142.16 115,-132.16 111.5,-142.16 118.5,-142.16"/>
</g>
</g>
</svg>
