<?xml version="1.0" encoding="UTF-8" standalone="no"?>
<!DOCTYPE svg PUBLIC "-//W3C//DTD SVG 1.1//EN"
 "http://www.w3.org/Graphics/SVG/1.1/DTD/svg11.dtd">
<!-- Generated by graphviz version 2.43.0 (0)
 -->
<!-- Title: G Pages: 1 -->
<svg width="275pt" height="562pt"
 viewBox="0.00 0.00 274.97 562.00" xmlns="http://www.w3.org/2000/svg" xmlns:xlink="http://www.w3.org/1999/xlink">
<g id="graph0" class="graph" transform="scale(1 1) rotate(0) translate(4 558)">
<title>G</title>
<polygon fill="white" stroke="transparent" points="-4,4 -4,-558 270.97,-558 270.97,4 -4,4"/>
<text text-anchor="middle" x="133.49" y="-7.8" font-family="italic" font-size="14.00">graphop</text>
<!-- a -->
<g id="node1" class="node">
<title>a</title>
<polygon fill="wheat" stroke="#990000" stroke-width="3" points="189.29,-530.44 216.29,-518 243.29,-530.44 243.27,-550.56 189.32,-550.56 189.29,-530.44"/>
<text text-anchor="middle" x="216.29" y="-532.3" font-family="Times,serif" font-size="14.00">a</text>
</g>
<!-- mul1 -->
<g id="node2" class="node">
<title>mul1</title>
<ellipse fill="wheat" stroke="black" cx="170.29" cy="-463" rx="34.39" ry="18"/>
<text text-anchor="middle" x="170.29" y="-459.3" font-family="italic" font-size="14.00">mul1</text>
</g>
<!-- a&#45;&gt;mul1 -->
<g id="edge1" class="edge">
<title>a&#45;&gt;mul1</title>
<path fill="none" stroke="black" d="M207.64,-521.65C201.64,-512.39 193.48,-499.79 186.32,-488.73"/>
<polygon fill="black" stroke="black" points="189.22,-486.78 180.84,-480.29 183.34,-490.58 189.22,-486.78"/>
</g>
<!-- ab -->
<g id="node4" class="node">
<title>ab</title>
<polygon fill="wheat" stroke="#990000" stroke-width="3" points="132.29,-389 78.29,-389 78.29,-353 132.29,-353 132.29,-389"/>
<text text-anchor="middle" x="105.29" y="-367.3" font-family="Times,serif" font-size="14.00">ab</text>
</g>
<!-- a&#45;&gt;ab -->
<g id="edge12" class="edge">
<title>a&#45;&gt;ab</title>
<path fill="none" stroke="#009999" stroke-width="3" stroke-dasharray="1,5" d="M191.47,-529.2C167.38,-522.16 131.95,-507.76 114.29,-481 98.33,-456.81 98.21,-422.72 100.7,-399.13"/>
<polygon fill="#009999" stroke="#009999" stroke-width="3" points="101.99,-389.11 105.18,-399.6 102.34,-394.19 101.71,-399.15 100.72,-399.03 99.73,-398.9 100.36,-393.94 96.25,-398.45 101.99,-389.11 101.99,-389.11"/>
<text text-anchor="middle" x="120.79" y="-458.6" font-family="bold" font-size="18.00" fill="#009999">4</text>
</g>
<!-- sub1 -->
<g id="node5" class="node">
<title>sub1</title>
<ellipse fill="wheat" stroke="black" cx="200.29" cy="-279" rx="33.29" ry="18"/>
<text text-anchor="middle" x="200.29" y="-275.3" font-family="italic" font-size="14.00">sub1</text>
</g>
<!-- a&#45;&gt;sub1 -->
<g id="edge2" class="edge">
<title>a&#45;&gt;sub1</title>
<path fill="none" stroke="black" d="M216.81,-517.9C217.6,-485.6 218.54,-413.45 213.29,-353 211.97,-337.72 209.06,-320.85 206.33,-307.18"/>
<polygon fill="black" stroke="black" points="209.67,-306.07 204.21,-296.99 202.82,-307.5 209.67,-306.07"/>
</g>
<!-- b -->
<g id="node3" class="node">
<title>b</title>
<polygon fill="wheat" stroke="#990000" stroke-width="3" points="150.29,-365.44 177.29,-353 204.29,-365.44 204.27,-385.56 150.32,-385.56 150.29,-365.44"/>
<text text-anchor="middle" x="177.29" y="-367.3" font-family="Times,serif" font-size="14.00">b</text>
</g>
<!-- mul1&#45;&gt;b -->
<g id="edge9" class="edge">
<title>mul1&#45;&gt;b</title>
<path fill="none" stroke="#009999" stroke-width="3" stroke-dasharray="1,5" d="M172.45,-444.93C173.11,-439.24 173.8,-432.85 174.29,-427 175.16,-416.75 175.82,-405.41 176.31,-395.7"/>
<polygon fill="#009999" stroke="#009999" stroke-width="3" points="176.78,-385.58 180.81,-395.77 177.54,-390.62 177.31,-395.61 176.31,-395.57 175.31,-395.52 175.55,-390.53 171.82,-395.36 176.78,-385.58 176.78,-385.58"/>
<text text-anchor="middle" x="182.79" y="-412.6" font-family="bold" font-size="18.00" fill="#009999">1</text>
</g>
<!-- mul1&#45;&gt;ab -->
<g id="edge3" class="edge">
<title>mul1&#45;&gt;ab</title>
<path fill="none" stroke="black" d="M158.67,-445.91C148.94,-432.43 134.86,-412.95 123.61,-397.37"/>
<polygon fill="black" stroke="black" points="126.39,-395.23 117.7,-389.18 120.72,-399.33 126.39,-395.23"/>
</g>
<!-- b&#45;&gt;mul1 -->
<g id="edge4" class="edge">
<title>b&#45;&gt;mul1</title>
<path fill="none" stroke="black" d="M176.22,-385.77C175.21,-398.72 173.68,-418.5 172.42,-434.66"/>
<polygon fill="black" stroke="black" points="168.93,-434.41 171.64,-444.65 175.91,-434.95 168.93,-434.41"/>
</g>
<!-- b&#45;&gt;sub1 -->
<g id="edge10" class="edge">
<title>b&#45;&gt;sub1</title>
<path fill="none" stroke="#009999" stroke-width="3" stroke-dasharray="1,5" d="M181.19,-354.73C184.56,-341.57 189.49,-322.26 193.5,-306.57"/>
<polygon fill="#009999" stroke="#009999" stroke-width="3" points="195.98,-296.88 197.86,-307.68 195.71,-301.97 194.47,-306.81 193.5,-306.56 192.53,-306.32 193.77,-301.47 189.14,-305.45 195.98,-296.88 195.98,-296.88"/>
<text text-anchor="middle" x="196.79" y="-320.6" font-family="bold" font-size="18.00" fill="#009999">2</text>
</g>
<!-- ab&#45;&gt;sub1 -->
<g id="edge5" class="edge">
<title>ab&#45;&gt;sub1</title>
<path fill="none" stroke="black" d="M123.61,-352.65C138.81,-338.25 160.51,-317.69 176.95,-302.11"/>
<polygon fill="black" stroke="black" points="179.7,-304.33 184.55,-294.91 174.89,-299.25 179.7,-304.33"/>
</g>
<!-- abspow1 -->
<g id="node7" class="node">
<title>abspow1</title>
<ellipse fill="wheat" stroke="black" cx="117.29" cy="-114" rx="51.99" ry="18"/>
<text text-anchor="middle" x="117.29" y="-110.3" font-family="italic" font-size="14.00">abspow1</text>
</g>
<!-- ab&#45;&gt;abspow1 -->
<g id="edge13" class="edge">
<title>ab&#45;&gt;abspow1</title>
<path fill="none" stroke="#009999" stroke-width="3" stroke-dasharray="1,5" d="M106.1,-352.87C108.14,-309.5 113.52,-195.06 116.01,-142.32"/>
<polygon fill="#009999" stroke="#009999" stroke-width="3" points="116.49,-132.05 120.51,-142.25 117.25,-137.09 117.02,-142.09 116.02,-142.04 115.02,-141.99 115.26,-137 111.52,-141.83 116.49,-132.05 116.49,-132.05"/>
<text text-anchor="middle" x="118.79" y="-228.6" font-family="bold" font-size="18.00" fill="#009999">5</text>
</g>
<!-- sub1&#45;&gt;a -->
<g id="edge11" class="edge">
<title>sub1&#45;&gt;a</title>
<path fill="none" stroke="#009999" stroke-width="3" stroke-dasharray="1,5" d="M212.92,-295.91C216.86,-301.63 220.81,-308.32 223.29,-315 229.23,-330.97 226.86,-336.03 228.29,-353 233.77,-418.11 244.33,-436.19 230.29,-500 229.46,-503.8 228.25,-507.73 226.9,-511.52"/>
<polygon fill="#009999" stroke="#009999" stroke-width="3" points="223.1,-521.03 222.63,-510.08 224.03,-516.02 225.88,-511.37 226.81,-511.74 227.74,-512.11 225.88,-516.76 230.99,-513.41 223.1,-521.03 223.1,-521.03"/>
<text text-anchor="middle" x="242.79" y="-412.6" font-family="bold" font-size="18.00" fill="#009999">3</text>
</g>
<!-- a_minus_ab -->
<g id="node6" class="node">
<title>a_minus_ab</title>
<polygon fill="wheat" stroke="black" points="267.15,-192.56 200.29,-205 133.43,-192.56 133.49,-172.44 267.09,-172.44 267.15,-192.56"/>
<text text-anchor="middle" x="200.29" y="-183.3" font-family="Times,serif" font-size="14.00">a_minus_ab</text>
</g>
<!-- sub1&#45;&gt;a_minus_ab -->
<g id="edge6" class="edge">
<title>sub1&#45;&gt;a_minus_ab</title>
<path fill="none" stroke="black" d="M200.29,-260.65C200.29,-247.82 200.29,-230.11 200.29,-215.38"/>
<polygon fill="black" stroke="black" points="203.79,-215.3 200.29,-205.3 196.79,-215.3 203.79,-215.3"/>
</g>
<!-- a_minus_ab&#45;&gt;abspow1 -->
<g id="edge7" class="edge">
<title>a_minus_ab&#45;&gt;abspow1</title>
<path fill="none" stroke="black" d="M184.29,-172.31C172.82,-162.5 157.11,-149.06 143.78,-137.66"/>
<polygon fill="black" stroke="black" points="145.73,-134.72 135.85,-130.88 141.18,-140.04 145.73,-134.72"/>
</g>
<!-- abs_a_minus_ab_cubed -->
<g id="node8" class="node">
<title>abs_a_minus_ab_cubed</title>
<polygon fill="wheat" stroke="black" points="234.38,-46.56 117.29,-59 0.21,-46.56 0.32,-26.44 234.27,-26.44 234.38,-46.56"/>
<text text-anchor="middle" x="117.29" y="-37.3" font-family="Times,serif" font-size="14.00">abs_a_minus_ab_cubed</text>
</g>
<!-- abspow1&#45;&gt;abs_a_minus_ab_cubed -->
<g id="edge8" class="edge">
<title>abspow1&#45;&gt;abs_a_minus_ab_cubed</title>
<path fill="none" stroke="black" d="M117.29,-95.81C117.29,-87.79 117.29,-78.05 117.29,-69.07"/>
<polygon fill="black" stroke="black" points="120.79,-69.03 117.29,-59.03 113.79,-69.03 120.79,-69.03"/>
</g>
</g>
</svg>
