<?xml version="1.0" encoding="UTF-8" standalone="no"?>
<!DOCTYPE svg PUBLIC "-//W3C//DTD SVG 1.1//EN"
 "http://www.w3.org/Graphics/SVG/1.1/DTD/svg11.dtd">
<!-- Generated by graphviz version 2.43.0 (0)
 -->
<!-- Title: G Pages: 1 -->
<svg width="1171pt" height="207pt"
 viewBox="0.00 0.00 1171.25 207.00" xmlns="http://www.w3.org/2000/svg" xmlns:xlink="http://www.w3.org/1999/xlink">
<g id="graph0" class="graph" transform="scale(1 1) rotate(0) translate(4 203)">
<title>G</title>
<polygon fill="white" stroke="transparent" points="-4,4 -4,-203 1167.25,-203 1167.25,4 -4,4"/>
<g id="clust1" class="cluster">
<title>cluster_legend</title>
<polygon fill="none" stroke="black" points="8,-8 8,-191 1155.25,-191 1155.25,-8 8,-8"/>
<text text-anchor="middle" x="581.63" y="-175.8" font-family="Times,serif" font-size="14.00">Graphkit Legend</text>
</g>
<!-- operation -->
<g id="node1" class="node">
<title>operation</title>
<ellipse fill="none" stroke="black" cx="60.2" cy="-142" rx="44.39" ry="18"/>
<text text-anchor="middle" x="60.2" y="-138.3" font-family="Times,serif" font-size="14.00">operation</text>
</g>
<!-- graphop -->
<g id="node2" class="node">
<title>graphop</title>
<polygon fill="none" stroke="black" points="218.53,-124.05 222.86,-124.15 227.15,-124.3 231.38,-124.49 235.52,-124.74 239.57,-125.03 243.51,-125.36 247.32,-125.75 250.98,-126.18 254.5,-126.65 257.84,-127.16 261.01,-127.71 263.98,-128.31 266.75,-128.94 269.32,-129.61 271.67,-130.31 273.8,-131.04 275.71,-131.8 277.39,-132.59 278.83,-133.41 280.05,-134.25 281.03,-135.11 281.78,-135.99 282.31,-136.89 282.61,-137.8 282.69,-138.72 282.56,-139.65 282.21,-140.59 281.67,-141.53 280.93,-142.47 280.01,-143.41 278.91,-144.35 277.64,-145.28 276.21,-146.2 274.63,-147.11 272.91,-148.01 271.07,-148.89 269.1,-149.75 267.01,-150.59 264.83,-151.41 262.55,-152.2 260.19,-152.96 257.75,-153.69 255.25,-154.39 252.68,-155.06 250.06,-155.69 247.39,-156.29 244.68,-156.84 241.94,-157.35 239.17,-157.82 236.36,-158.25 233.54,-158.64 230.7,-158.97 227.85,-159.26 224.98,-159.51 222.1,-159.7 219.22,-159.85 216.33,-159.95 213.44,-160 210.55,-160 207.65,-159.95 204.76,-159.85 201.88,-159.7 199,-159.51 196.14,-159.26 193.28,-158.97 190.44,-158.64 187.62,-158.25 184.82,-157.82 182.04,-157.35 179.3,-156.84 176.59,-156.29 173.92,-155.69 171.3,-155.06 168.73,-154.39 166.23,-153.69 163.79,-152.96 161.43,-152.2 159.15,-151.41 156.97,-150.59 154.89,-149.75 152.92,-148.89 151.07,-148.01 149.35,-147.11 147.77,-146.2 146.34,-145.28 145.07,-144.35 143.97,-143.41 143.05,-142.47 142.31,-141.53 141.77,-140.59 141.43,-139.65 141.29,-138.72 141.37,-137.8 141.67,-136.89 142.2,-135.99 142.95,-135.11 143.94,-134.25 145.15,-133.41 146.6,-132.59 148.27,-131.8 150.18,-131.04 152.31,-130.31 154.66,-129.61 157.23,-128.94 160,-128.31 162.98,-127.71 166.14,-127.16 169.49,-126.65 173,-126.18 176.67,-125.75 180.48,-125.36 184.41,-125.03 188.46,-124.74 192.61,-124.49 196.83,-124.3 201.12,-124.15 205.45,-124.05 209.81,-124 214.17,-124 218.53,-124.05"/>
<text text-anchor="middle" x="211.99" y="-138.3" font-family="Times,serif" font-size="14.00">graph operation</text>
</g>
<!-- operation&#45;&gt;graphop -->
<!-- insteps -->
<g id="node3" class="node">
<title>insteps</title>
<ellipse fill="none" stroke="black" stroke-width="3" cx="381.33" cy="-142" rx="61.99" ry="18"/>
<text text-anchor="middle" x="381.33" y="-138.3" font-family="Times,serif" font-size="14.00">execution step</text>
</g>
<!-- graphop&#45;&gt;insteps -->
<!-- executed -->
<g id="node4" class="node">
<title>executed</title>
<ellipse fill="wheat" stroke="black" cx="559.37" cy="-142" rx="42.49" ry="18"/>
<text text-anchor="middle" x="559.37" y="-138.3" font-family="Times,serif" font-size="14.00">executed</text>
</g>
<!-- insteps&#45;&gt;executed -->
<!-- data -->
<g id="node5" class="node">
<title>data</title>
<polygon fill="none" stroke="black" points="87.2,-106 33.2,-106 33.2,-70 87.2,-70 87.2,-106"/>
<text text-anchor="middle" x="60.2" y="-84.3" font-family="Times,serif" font-size="14.00">data</text>
</g>
<!-- input -->
<g id="node6" class="node">
<title>input</title>
<polygon fill="none" stroke="black" points="176.79,-82.44 211.99,-70 247.19,-82.44 247.16,-102.56 176.83,-102.56 176.79,-82.44"/>
<text text-anchor="middle" x="211.99" y="-84.3" font-family="Times,serif" font-size="14.00">input</text>
</g>
<!-- data&#45;&gt;input -->
<!-- output -->
<g id="node7" class="node">
<title>output</title>
<polygon fill="none" stroke="black" points="422.28,-93.56 381.33,-106 340.39,-93.56 340.43,-73.44 422.24,-73.44 422.28,-93.56"/>
<text text-anchor="middle" x="381.33" y="-84.3" font-family="Times,serif" font-size="14.00">output</text>
</g>
<!-- input&#45;&gt;output -->
<!-- inp_out -->
<g id="node8" class="node">
<title>inp_out</title>
<polygon fill="none" stroke="black" points="603.43,-88 581.4,-106 537.34,-106 515.31,-88 537.34,-70 581.4,-70 603.43,-88"/>
<text text-anchor="middle" x="559.37" y="-84.3" font-family="Times,serif" font-size="14.00">inp+out</text>
</g>
<!-- output&#45;&gt;inp_out -->
<!-- evicted -->
<g id="node9" class="node">
<title>evicted</title>
<polygon fill="none" stroke="#990000" stroke-width="3" points="788.96,-106 732.96,-106 732.96,-70 788.96,-70 788.96,-106"/>
<text text-anchor="middle" x="760.96" y="-84.3" font-family="Times,serif" font-size="14.00">evicted</text>
</g>
<!-- inp_out&#45;&gt;evicted -->
<!-- pinned -->
<g id="node10" class="node">
<title>pinned</title>
<polygon fill="none" stroke="blue" stroke-width="3" points="931.25,-106 877.25,-106 877.25,-70 931.25,-70 931.25,-106"/>
<text text-anchor="middle" x="904.25" y="-84.3" font-family="Times,serif" font-size="14.00">pinned</text>
</g>
<!-- evicted&#45;&gt;pinned -->
<!-- evpin -->
<g id="node11" class="node">
<title>evpin</title>
<polygon fill="none" stroke="purple" stroke-width="3" points="1036.25,-106 968.25,-106 968.25,-70 1036.25,-70 1036.25,-106"/>
<text text-anchor="middle" x="1002.25" y="-84.3" font-family="Times,serif" font-size="14.00">evict+pin</text>
</g>
<!-- pinned&#45;&gt;evpin -->
<!-- sol -->
<g id="node12" class="node">
<title>sol</title>
<polygon fill="wheat" stroke="black" points="1147.25,-106 1073.25,-106 1073.25,-70 1147.25,-70 1147.25,-106"/>
<text text-anchor="middle" x="1110.25" y="-84.3" font-family="Times,serif" font-size="14.00">in solution</text>
</g>
<!-- evpin&#45;&gt;sol -->
<!-- e1 -->
<!-- e2 -->
<g id="node14" class="node">
<title>e2</title>
<ellipse fill="none" stroke="transparent" cx="211.99" cy="-34" rx="52.79" ry="18"/>
<text text-anchor="middle" x="211.99" y="-30.3" font-family="Times,serif" font-size="14.00">dependency</text>
</g>
<!-- e1&#45;&gt;e2 -->
<g id="edge11" class="edge">
<title>e1&#45;&gt;e2</title>
<path fill="none" stroke="black" d="M87.29,-34C104.37,-34 127.44,-34 149.03,-34"/>
<polygon fill="black" stroke="black" points="149.15,-37.5 159.15,-34 149.15,-30.5 149.15,-37.5"/>
</g>
<!-- e3 -->
<g id="node15" class="node">
<title>e3</title>
<ellipse fill="none" stroke="transparent" cx="381.33" cy="-34" rx="39.79" ry="18"/>
<text text-anchor="middle" x="381.33" y="-30.3" font-family="Times,serif" font-size="14.00">optional</text>
</g>
<!-- e2&#45;&gt;e3 -->
<g id="edge12" class="edge">
<title>e2&#45;&gt;e3</title>
<path fill="none" stroke="black" stroke-dasharray="5,2" d="M265.02,-34C286.2,-34 310.55,-34 331.4,-34"/>
<polygon fill="black" stroke="black" points="331.63,-37.5 341.63,-34 331.63,-30.5 331.63,-37.5"/>
</g>
<!-- e4 -->
<g id="node16" class="node">
<title>e4</title>
<ellipse fill="none" stroke="transparent" stroke-width="3" cx="559.37" cy="-34" rx="79.09" ry="18"/>
<text text-anchor="middle" x="559.37" y="-30.3" font-family="Times,serif" font-size="14.00">pruned dependency</text>
</g>
<!-- e3&#45;&gt;e4 -->
<g id="edge13" class="edge">
<title>e3&#45;&gt;e4</title>
<path fill="none" stroke="wheat" stroke-width="2" d="M421.4,-34C435.66,-34 452.44,-34 469.26,-34"/>
<polygon fill="wheat" stroke="wheat" stroke-width="2" points="469.73,-37.5 479.73,-34 469.73,-30.5 469.73,-37.5"/>
</g>
<!-- e5 -->
<g id="node17" class="node">
<title>e5</title>
<ellipse fill="none" stroke="transparent" stroke-width="4" cx="760.96" cy="-34" rx="79.09" ry="18"/>
<text text-anchor="middle" x="760.96" y="-30.3" font-family="Times,serif" font-size="14.00">execution sequence</text>
</g>
<!-- e4&#45;&gt;e5 -->
<g id="edge14" class="edge">
<title>e4&#45;&gt;e5</title>
<path fill="none" stroke="#009999" stroke-width="4" stroke-dasharray="1,5" d="M638.68,-34C649.36,-34 660.38,-34 671.22,-34"/>
<polygon fill="#009999" stroke="#009999" stroke-width="4" points="681.55,-34 671.55,-38.5 676.55,-35.5 671.55,-35.5 671.55,-34 671.55,-32.5 676.55,-32.5 671.55,-29.5 681.55,-34 681.55,-34"/>
<text text-anchor="middle" x="660.17" y="-37.8" font-family="Times,serif" font-size="14.00" fill="#009999">1</text>
</g>
</g>
</svg>
