<?xml version="1.0" encoding="UTF-8" standalone="no"?>
<!DOCTYPE svg PUBLIC "-//W3C//DTD SVG 1.1//EN"
 "http://www.w3.org/Graphics/SVG/1.1/DTD/svg11.dtd">
<!-- Generated by graphviz version 2.43.0 (0)
 -->
<!-- Title: %3 Pages: 1 -->
<svg width="309pt" height="355pt"
 viewBox="0.00 0.00 308.69 355.00" xmlns="http://www.w3.org/2000/svg" xmlns:xlink="http://www.w3.org/1999/xlink">
<g id="graph0" class="graph" transform="scale(1 1) rotate(0) translate(4 351)">
<title>%3</title>
<polygon fill="white" stroke="transparent" points="-4,4 -4,-351 304.69,-351 304.69,4 -4,4"/>
<text text-anchor="middle" x="150.35" y="-331.8" font-family="Times,serif" font-size="14.00">graphkit&#45;v1.2.4 flowchart</text>
<!-- operations -->
<g id="node1" class="node">
<title>operations</title>
<polygon fill="none" stroke="black" points="190.53,-324 50.8,-324 14.85,-288 154.59,-288 190.53,-324"/>
<text text-anchor="middle" x="102.69" y="-302.3" font-family="italic" font-size="14.00">operations</text>
</g>
<!-- compose -->
<g id="node2" class="node">
<title>compose</title>
<ellipse fill="none" stroke="black" cx="102.69" cy="-234" rx="102.88" ry="18"/>
<text text-anchor="middle" x="102.69" y="-230.3" font-family="italic" font-size="14.00">compose &amp; compile</text>
</g>
<!-- operations&#45;&gt;compose -->
<g id="edge1" class="edge">
<title>operations&#45;&gt;compose</title>
<path fill="none" stroke="black" d="M102.69,-287.7C102.69,-279.98 102.69,-270.71 102.69,-262.11"/>
<polygon fill="black" stroke="black" points="102.69,-252.1 107.19,-262.1 102.69,-257.1 102.69,-262.1 102.69,-262.1 102.69,-262.1 102.69,-257.1 98.19,-262.1 102.69,-252.1 102.69,-252.1"/>
</g>
<!-- network -->
<g id="node3" class="node">
<title>network</title>
<polygon fill="none" stroke="black" points="175.04,-180 59.95,-180 30.34,-144 145.43,-144 175.04,-180"/>
<text text-anchor="middle" x="102.69" y="-158.3" font-family="italic" font-size="14.00">network</text>
</g>
<!-- compose&#45;&gt;network -->
<g id="edge2" class="edge">
<title>compose&#45;&gt;network</title>
<path fill="none" stroke="black" d="M102.69,-215.7C102.69,-207.98 102.69,-198.71 102.69,-190.11"/>
<polygon fill="black" stroke="black" points="102.69,-180.1 107.19,-190.1 102.69,-185.1 102.69,-190.1 102.69,-190.1 102.69,-190.1 102.69,-185.1 98.19,-190.1 102.69,-180.1 102.69,-180.1"/>
</g>
<!-- compute -->
<g id="node5" class="node">
<title>compute</title>
<ellipse fill="none" stroke="black" cx="174.69" cy="-90" rx="51.19" ry="18"/>
<text text-anchor="middle" x="174.69" y="-86.3" font-family="italic" font-size="14.00">compute</text>
</g>
<!-- network&#45;&gt;compute -->
<g id="edge3" class="edge">
<title>network&#45;&gt;compute</title>
<path fill="none" stroke="black" d="M120.49,-143.7C129.65,-134.79 140.94,-123.81 150.84,-114.19"/>
<polygon fill="black" stroke="black" points="158.09,-107.14 154.05,-117.34 154.5,-110.63 150.92,-114.12 150.92,-114.12 150.92,-114.12 154.5,-110.63 147.78,-110.89 158.09,-107.14 158.09,-107.14"/>
</g>
<!-- data -->
<g id="node4" class="node">
<title>data</title>
<polygon fill="none" stroke="black" points="300.69,-180 192.69,-180 192.69,-144 300.69,-144 300.69,-180"/>
<text text-anchor="middle" x="246.69" y="-158.3" font-family="Times,serif" font-size="14.00">inputs &amp; outputs</text>
</g>
<!-- data&#45;&gt;compute -->
<g id="edge4" class="edge">
<title>data&#45;&gt;compute</title>
<path fill="none" stroke="black" d="M228.89,-143.7C219.73,-134.79 208.44,-123.81 198.54,-114.19"/>
<polygon fill="black" stroke="black" points="191.3,-107.14 201.6,-110.89 194.88,-110.63 198.47,-114.12 198.47,-114.12 198.47,-114.12 194.88,-110.63 195.33,-117.34 191.3,-107.14 191.3,-107.14"/>
</g>
<!-- solution -->
<g id="node6" class="node">
<title>solution</title>
<polygon fill="none" stroke="black" points="204.69,-36 144.69,-36 144.69,0 204.69,0 204.69,-36"/>
<text text-anchor="middle" x="174.69" y="-14.3" font-family="Times,serif" font-size="14.00">solution</text>
</g>
<!-- compute&#45;&gt;solution -->
<g id="edge5" class="edge">
<title>compute&#45;&gt;solution</title>
<path fill="none" stroke="black" d="M174.69,-71.7C174.69,-63.98 174.69,-54.71 174.69,-46.11"/>
<polygon fill="black" stroke="black" points="174.69,-36.1 179.19,-46.1 174.69,-41.1 174.69,-46.1 174.69,-46.1 174.69,-46.1 174.69,-41.1 170.19,-46.1 174.69,-36.1 174.69,-36.1"/>
</g>
</g>
</svg>
