<?xml version="1.0" encoding="UTF-8" standalone="no"?>
<!DOCTYPE svg PUBLIC "-//W3C//DTD SVG 1.1//EN"
 "http://www.w3.org/Graphics/SVG/1.1/DTD/svg11.dtd">
<!-- Generated by graphviz version 2.43.0 (0)
 -->
<!-- Title: %3 Pages: 1 -->
<svg width="445pt" height="502pt"
 viewBox="0.00 0.00 445.17 502.00" xmlns="http://www.w3.org/2000/svg" xmlns:xlink="http://www.w3.org/1999/xlink">
<g id="graph0" class="graph" transform="scale(1 1) rotate(0) translate(4 498)">
<title>%3</title>
<polygon fill="white" stroke="transparent" points="-4,4 -4,-498 441.17,-498 441.17,4 -4,4"/>
<text text-anchor="middle" x="218.59" y="-478.8" font-family="Times,serif" font-size="14.00">graphkit&#45;v1.3.0 flowchart</text>
<g id="clust1" class="cluster">
<title>cluster_compute</title>
<polygon fill="none" stroke="black" stroke-dasharray="5,2" points="95.67,-44 95.67,-263 343.67,-263 343.67,-44 95.67,-44"/>
<text text-anchor="middle" x="219.67" y="-51.8" font-family="bold" font-size="14.00">compute</text>
</g>
<!-- operations -->
<g id="node1" class="node">
<title>operations</title>
<polygon fill="none" stroke="black" points="175.51,-471 35.78,-471 -0.17,-435 139.56,-435 175.51,-471"/>
<text text-anchor="middle" x="87.67" y="-449.3" font-family="italic" font-size="14.00">operations</text>
</g>
<!-- compose -->
<g id="node2" class="node">
<title>compose</title>
<ellipse fill="none" stroke="black" cx="87.67" cy="-381" rx="51.99" ry="18"/>
<text text-anchor="middle" x="87.67" y="-377.3" font-family="italic" font-size="14.00">compose</text>
</g>
<!-- operations&#45;&gt;compose -->
<g id="edge1" class="edge">
<title>operations&#45;&gt;compose</title>
<path fill="none" stroke="black" d="M87.67,-434.7C87.67,-426.98 87.67,-417.71 87.67,-409.11"/>
<polygon fill="black" stroke="black" points="87.67,-399.1 92.17,-409.1 87.67,-404.1 87.67,-409.1 87.67,-409.1 87.67,-409.1 87.67,-404.1 83.17,-409.1 87.67,-399.1 87.67,-399.1"/>
</g>
<!-- network -->
<g id="node3" class="node">
<title>network</title>
<polygon fill="none" stroke="black" points="160.02,-327 44.93,-327 15.32,-291 130.41,-291 160.02,-327"/>
<text text-anchor="middle" x="87.67" y="-305.3" font-family="italic" font-size="14.00">network</text>
</g>
<!-- compose&#45;&gt;network -->
<g id="edge2" class="edge">
<title>compose&#45;&gt;network</title>
<path fill="none" stroke="black" d="M87.67,-362.7C87.67,-354.98 87.67,-345.71 87.67,-337.11"/>
<polygon fill="black" stroke="black" points="87.67,-327.1 92.17,-337.1 87.67,-332.1 87.67,-337.1 87.67,-337.1 87.67,-337.1 87.67,-332.1 83.17,-337.1 87.67,-327.1 87.67,-327.1"/>
</g>
<!-- compile -->
<g id="node6" class="node">
<title>compile</title>
<ellipse fill="none" stroke="black" cx="219.67" cy="-237" rx="47.39" ry="18"/>
<text text-anchor="middle" x="219.67" y="-233.3" font-family="italic" font-size="14.00">compile</text>
</g>
<!-- network&#45;&gt;compile -->
<g id="edge3" class="edge">
<title>network&#45;&gt;compile</title>
<path fill="none" stroke="black" d="M119.96,-290.88C139.33,-280.6 164,-267.52 183.95,-256.94"/>
<polygon fill="black" stroke="black" points="193.04,-252.12 186.31,-260.78 188.62,-254.47 184.2,-256.81 184.2,-256.81 184.2,-256.81 188.62,-254.47 182.1,-252.83 193.04,-252.12 193.04,-252.12"/>
</g>
<!-- inputs -->
<g id="node4" class="node">
<title>inputs</title>
<polygon fill="none" stroke="black" points="261.17,-327 178.17,-327 178.17,-291 261.17,-291 261.17,-327"/>
<text text-anchor="middle" x="219.67" y="-305.3" font-family="Times,serif" font-size="14.00">input names</text>
</g>
<!-- inputs&#45;&gt;compile -->
<g id="edge4" class="edge">
<title>inputs&#45;&gt;compile</title>
<path fill="none" stroke="black" d="M219.67,-290.7C219.67,-282.98 219.67,-273.71 219.67,-265.11"/>
<polygon fill="black" stroke="black" points="219.67,-255.1 224.17,-265.1 219.67,-260.1 219.67,-265.1 219.67,-265.1 219.67,-265.1 219.67,-260.1 215.17,-265.1 219.67,-255.1 219.67,-255.1"/>
</g>
<!-- outputs -->
<g id="node5" class="node">
<title>outputs</title>
<polygon fill="none" stroke="black" points="369.67,-327 279.67,-327 279.67,-291 369.67,-291 369.67,-327"/>
<text text-anchor="middle" x="324.67" y="-305.3" font-family="Times,serif" font-size="14.00">output names</text>
</g>
<!-- outputs&#45;&gt;compile -->
<g id="edge5" class="edge">
<title>outputs&#45;&gt;compile</title>
<path fill="none" stroke="black" d="M298.98,-290.88C284.47,-281.2 266.22,-269.03 250.88,-258.81"/>
<polygon fill="black" stroke="black" points="242.24,-253.05 253.06,-254.85 246.4,-255.82 250.56,-258.59 250.56,-258.59 250.56,-258.59 246.4,-255.82 248.06,-262.34 242.24,-253.05 242.24,-253.05"/>
</g>
<!-- plan -->
<g id="node7" class="node">
<title>plan</title>
<polygon fill="none" stroke="black" points="335.69,-183 151.13,-183 103.65,-147 288.21,-147 335.69,-183"/>
<text text-anchor="middle" x="219.67" y="-161.3" font-family="italic" font-size="14.00">execution plan</text>
</g>
<!-- compile&#45;&gt;plan -->
<g id="edge6" class="edge">
<title>compile&#45;&gt;plan</title>
<path fill="none" stroke="black" d="M219.67,-218.7C219.67,-210.98 219.67,-201.71 219.67,-193.11"/>
<polygon fill="black" stroke="black" points="219.67,-183.1 224.17,-193.1 219.67,-188.1 219.67,-193.1 219.67,-193.1 219.67,-193.1 219.67,-188.1 215.17,-193.1 219.67,-183.1 219.67,-183.1"/>
</g>
<!-- execute -->
<g id="node8" class="node">
<title>execute</title>
<ellipse fill="none" stroke="black" cx="253.67" cy="-93" rx="47.39" ry="18"/>
<text text-anchor="middle" x="253.67" y="-89.3" font-family="italic" font-size="14.00">execute</text>
</g>
<!-- plan&#45;&gt;execute -->
<g id="edge7" class="edge">
<title>plan&#45;&gt;execute</title>
<path fill="none" stroke="black" d="M228.07,-146.7C231.95,-138.73 236.62,-129.1 240.91,-120.26"/>
<polygon fill="black" stroke="black" points="245.36,-111.1 245.04,-122.07 243.18,-115.6 240.99,-120.1 240.99,-120.1 240.99,-120.1 243.18,-115.6 236.95,-118.13 245.36,-111.1 245.36,-111.1"/>
</g>
<!-- solution -->
<g id="node10" class="node">
<title>solution</title>
<polygon fill="none" stroke="black" points="241.67,-36 181.67,-36 181.67,0 241.67,0 241.67,-36"/>
<text text-anchor="middle" x="211.67" y="-14.3" font-family="Times,serif" font-size="14.00">solution</text>
</g>
<!-- execute&#45;&gt;solution -->
<g id="edge9" class="edge">
<title>execute&#45;&gt;solution</title>
<path fill="none" stroke="black" d="M243.93,-75.07C238.77,-66.1 232.33,-54.9 226.56,-44.87"/>
<polygon fill="black" stroke="black" points="221.5,-36.09 230.39,-42.52 224,-40.43 226.49,-44.76 226.49,-44.76 226.49,-44.76 224,-40.43 222.59,-47 221.5,-36.09 221.5,-36.09"/>
</g>
<!-- overwrites -->
<g id="node11" class="node">
<title>overwrites</title>
<polygon fill="none" stroke="black" points="333.67,-36 259.67,-36 259.67,0 333.67,0 333.67,-36"/>
<text text-anchor="middle" x="296.67" y="-14.3" font-family="Times,serif" font-size="14.00">overwrites</text>
</g>
<!-- execute&#45;&gt;overwrites -->
<g id="edge10" class="edge">
<title>execute&#45;&gt;overwrites</title>
<path fill="none" stroke="black" d="M263.64,-75.07C268.92,-66.1 275.52,-54.9 281.43,-44.87"/>
<polygon fill="black" stroke="black" points="286.6,-36.09 285.4,-46.99 284.06,-40.4 281.53,-44.71 281.53,-44.71 281.53,-44.71 284.06,-40.4 277.65,-42.42 286.6,-36.09 286.6,-36.09"/>
</g>
<!-- values -->
<g id="node9" class="node">
<title>values</title>
<polygon fill="none" stroke="black" points="437.17,-183 354.17,-183 354.17,-147 437.17,-147 437.17,-183"/>
<text text-anchor="middle" x="395.67" y="-161.3" font-family="Times,serif" font-size="14.00">input values</text>
</g>
<!-- values&#45;&gt;execute -->
<g id="edge8" class="edge">
<title>values&#45;&gt;execute</title>
<path fill="none" stroke="black" d="M360.93,-146.88C339.62,-136.37 312.35,-122.92 290.63,-112.22"/>
<polygon fill="black" stroke="black" points="281.4,-107.67 292.36,-108.05 285.88,-109.88 290.37,-112.09 290.37,-112.09 290.37,-112.09 285.88,-109.88 288.38,-116.13 281.4,-107.67 281.4,-107.67"/>
</g>
</g>
</svg>
