<?xml version="1.0" encoding="UTF-8" standalone="no"?>
<!DOCTYPE svg PUBLIC "-//W3C//DTD SVG 1.1//EN"
 "http://www.w3.org/Graphics/SVG/1.1/DTD/svg11.dtd">
<!-- Generated by graphviz version 2.43.0 (0)
 -->
<!-- Title: G Pages: 1 -->
<svg width="1269pt" height="207pt"
 viewBox="0.00 0.00 1268.59 207.00" xmlns="http://www.w3.org/2000/svg" xmlns:xlink="http://www.w3.org/1999/xlink">
<g id="graph0" class="graph" transform="scale(1 1) rotate(0) translate(4 203)">
<title>G</title>
<polygon fill="white" stroke="transparent" points="-4,4 -4,-203 1264.59,-203 1264.59,4 -4,4"/>
<g id="clust1" class="cluster">
<title>cluster_legend</title>
<polygon fill="none" stroke="black" points="8,-8 8,-191 1252.59,-191 1252.59,-8 8,-8"/>
<text text-anchor="middle" x="630.3" y="-175.8" font-family="Times,serif" font-size="14.00">Graphkit Legend</text>
</g>
<!-- operation -->
<g id="node1" class="node">
<title>operation</title>
<ellipse fill="none" stroke="black" cx="71.25" cy="-142" rx="55.49" ry="18"/>
<text text-anchor="middle" x="71.25" y="-138.3" font-family="italic" font-size="14.00">operation</text>
</g>
<!-- graphop -->
<g id="node2" class="node">
<title>graphop</title>
<polygon fill="none" stroke="black" points="262.57,-124.05 268.13,-124.15 273.64,-124.3 279.07,-124.49 284.4,-124.74 289.6,-125.03 294.66,-125.36 299.55,-125.75 304.27,-126.18 308.78,-126.65 313.08,-127.16 317.14,-127.71 320.96,-128.31 324.53,-128.94 327.83,-129.61 330.85,-130.31 333.59,-131.04 336.04,-131.8 338.19,-132.59 340.05,-133.41 341.61,-134.25 342.87,-135.11 343.84,-135.99 344.51,-136.89 344.9,-137.8 345,-138.72 344.83,-139.65 344.39,-140.59 343.69,-141.53 342.75,-142.47 341.56,-143.41 340.15,-144.35 338.52,-145.28 336.68,-146.2 334.65,-147.11 332.44,-148.01 330.07,-148.89 327.54,-149.75 324.86,-150.59 322.06,-151.41 319.13,-152.2 316.1,-152.96 312.96,-153.69 309.74,-154.39 306.45,-155.06 303.08,-155.69 299.65,-156.29 296.17,-156.84 292.64,-157.35 289.08,-157.82 285.48,-158.25 281.85,-158.64 278.2,-158.97 274.53,-159.26 270.85,-159.51 267.15,-159.7 263.45,-159.85 259.74,-159.95 256.02,-160 252.3,-160 248.59,-159.95 244.88,-159.85 241.17,-159.7 237.47,-159.51 233.79,-159.26 230.12,-158.97 226.47,-158.64 222.84,-158.25 219.24,-157.82 215.68,-157.35 212.15,-156.84 208.67,-156.29 205.24,-155.69 201.88,-155.06 198.58,-154.39 195.36,-153.69 192.23,-152.96 189.19,-152.2 186.27,-151.41 183.46,-150.59 180.79,-149.75 178.26,-148.89 175.88,-148.01 173.67,-147.11 171.64,-146.2 169.81,-145.28 168.18,-144.35 166.76,-143.41 165.58,-142.47 164.63,-141.53 163.93,-140.59 163.49,-139.65 163.32,-138.72 163.42,-137.8 163.81,-136.89 164.48,-135.99 165.45,-135.11 166.71,-134.25 168.27,-133.41 170.13,-132.59 172.29,-131.8 174.74,-131.04 177.47,-130.31 180.5,-129.61 183.79,-128.94 187.36,-128.31 191.18,-127.71 195.25,-127.16 199.54,-126.65 204.06,-126.18 208.77,-125.75 213.67,-125.36 218.72,-125.03 223.93,-124.74 229.25,-124.49 234.68,-124.3 240.19,-124.15 245.76,-124.05 251.36,-124 256.97,-124 262.57,-124.05"/>
<text text-anchor="middle" x="254.16" y="-138.3" font-family="italic" font-size="14.00">graph operation</text>
</g>
<!-- operation&#45;&gt;graphop -->
<!-- insteps -->
<g id="node3" class="node">
<title>insteps</title>
<ellipse fill="none" stroke="black" stroke-width="3" cx="461.13" cy="-142" rx="79.09" ry="18"/>
<text text-anchor="middle" x="461.13" y="-138.3" font-family="italic" font-size="14.00">execution step</text>
</g>
<!-- graphop&#45;&gt;insteps -->
<!-- executed -->
<g id="node4" class="node">
<title>executed</title>
<ellipse fill="wheat" stroke="black" cx="656.71" cy="-142" rx="53.09" ry="18"/>
<text text-anchor="middle" x="656.71" y="-138.3" font-family="italic" font-size="14.00">executed</text>
</g>
<!-- insteps&#45;&gt;executed -->
<!-- data -->
<g id="node5" class="node">
<title>data</title>
<polygon fill="none" stroke="black" points="98.25,-106 44.25,-106 44.25,-70 98.25,-70 98.25,-106"/>
<text text-anchor="middle" x="71.25" y="-84.3" font-family="Times,serif" font-size="14.00">data</text>
</g>
<!-- input -->
<g id="node6" class="node">
<title>input</title>
<polygon fill="none" stroke="black" points="218.96,-82.44 254.16,-70 289.36,-82.44 289.33,-102.56 219,-102.56 218.96,-82.44"/>
<text text-anchor="middle" x="254.16" y="-84.3" font-family="Times,serif" font-size="14.00">input</text>
</g>
<!-- data&#45;&gt;input -->
<!-- output -->
<g id="node7" class="node">
<title>output</title>
<polygon fill="none" stroke="black" points="502.07,-93.56 461.13,-106 420.18,-93.56 420.22,-73.44 502.03,-73.44 502.07,-93.56"/>
<text text-anchor="middle" x="461.13" y="-84.3" font-family="Times,serif" font-size="14.00">output</text>
</g>
<!-- input&#45;&gt;output -->
<!-- inp_out -->
<g id="node8" class="node">
<title>inp_out</title>
<polygon fill="none" stroke="black" points="700.77,-88 678.74,-106 634.68,-106 612.65,-88 634.68,-70 678.74,-70 700.77,-88"/>
<text text-anchor="middle" x="656.71" y="-84.3" font-family="Times,serif" font-size="14.00">inp+out</text>
</g>
<!-- output&#45;&gt;inp_out -->
<!-- evicted -->
<g id="node9" class="node">
<title>evicted</title>
<polygon fill="none" stroke="#990000" stroke-width="3" points="886.3,-106 830.3,-106 830.3,-70 886.3,-70 886.3,-106"/>
<text text-anchor="middle" x="858.3" y="-84.3" font-family="Times,serif" font-size="14.00">evicted</text>
</g>
<!-- inp_out&#45;&gt;evicted -->
<!-- pinned -->
<g id="node10" class="node">
<title>pinned</title>
<polygon fill="none" stroke="blue" stroke-width="3" points="1028.59,-106 974.59,-106 974.59,-70 1028.59,-70 1028.59,-106"/>
<text text-anchor="middle" x="1001.59" y="-84.3" font-family="Times,serif" font-size="14.00">pinned</text>
</g>
<!-- evicted&#45;&gt;pinned -->
<!-- evpin -->
<g id="node11" class="node">
<title>evpin</title>
<polygon fill="none" stroke="purple" stroke-width="3" points="1133.59,-106 1065.59,-106 1065.59,-70 1133.59,-70 1133.59,-106"/>
<text text-anchor="middle" x="1099.59" y="-84.3" font-family="Times,serif" font-size="14.00">evict+pin</text>
</g>
<!-- pinned&#45;&gt;evpin -->
<!-- sol -->
<g id="node12" class="node">
<title>sol</title>
<polygon fill="wheat" stroke="black" points="1244.59,-106 1170.59,-106 1170.59,-70 1244.59,-70 1244.59,-106"/>
<text text-anchor="middle" x="1207.59" y="-84.3" font-family="Times,serif" font-size="14.00">in solution</text>
</g>
<!-- evpin&#45;&gt;sol -->
<!-- e1 -->
<!-- e2 -->
<g id="node14" class="node">
<title>e2</title>
<ellipse fill="none" stroke="transparent" cx="254.16" cy="-34" rx="52.79" ry="18"/>
<text text-anchor="middle" x="254.16" y="-30.3" font-family="Times,serif" font-size="14.00">dependency</text>
</g>
<!-- e1&#45;&gt;e2 -->
<g id="edge11" class="edge">
<title>e1&#45;&gt;e2</title>
<path fill="none" stroke="black" d="M98.55,-34C122.78,-34 159.66,-34 191.33,-34"/>
<polygon fill="black" stroke="black" points="191.4,-37.5 201.4,-34 191.4,-30.5 191.4,-37.5"/>
</g>
<!-- e3 -->
<g id="node15" class="node">
<title>e3</title>
<ellipse fill="none" stroke="transparent" cx="461.13" cy="-34" rx="39.79" ry="18"/>
<text text-anchor="middle" x="461.13" y="-30.3" font-family="Times,serif" font-size="14.00">optional</text>
</g>
<!-- e2&#45;&gt;e3 -->
<g id="edge12" class="edge">
<title>e2&#45;&gt;e3</title>
<path fill="none" stroke="black" stroke-dasharray="5,2" d="M306.88,-34C338.85,-34 379.63,-34 411.08,-34"/>
<polygon fill="black" stroke="black" points="411.36,-37.5 421.36,-34 411.36,-30.5 411.36,-37.5"/>
</g>
<!-- e4 -->
<g id="node16" class="node">
<title>e4</title>
<ellipse fill="none" stroke="transparent" stroke-width="3" cx="656.71" cy="-34" rx="79.09" ry="18"/>
<text text-anchor="middle" x="656.71" y="-30.3" font-family="Times,serif" font-size="14.00">pruned dependency</text>
</g>
<!-- e3&#45;&gt;e4 -->
<g id="edge13" class="edge">
<title>e3&#45;&gt;e4</title>
<path fill="none" stroke="wheat" stroke-width="2" d="M500.84,-34C519.87,-34 543.65,-34 566.83,-34"/>
<polygon fill="wheat" stroke="wheat" stroke-width="2" points="567.06,-37.5 577.06,-34 567.06,-30.5 567.06,-37.5"/>
</g>
<!-- e5 -->
<g id="node17" class="node">
<title>e5</title>
<ellipse fill="none" stroke="transparent" stroke-width="4" cx="858.3" cy="-34" rx="79.09" ry="18"/>
<text text-anchor="middle" x="858.3" y="-30.3" font-family="Times,serif" font-size="14.00">execution sequence</text>
</g>
<!-- e4&#45;&gt;e5 -->
<g id="edge14" class="edge">
<title>e4&#45;&gt;e5</title>
<path fill="none" stroke="#009999" stroke-width="4" stroke-dasharray="1,5" d="M736.02,-34C746.7,-34 757.72,-34 768.56,-34"/>
<polygon fill="#009999" stroke="#009999" stroke-width="4" points="778.89,-34 768.89,-38.5 773.89,-35.5 768.89,-35.5 768.89,-34 768.89,-32.5 773.89,-32.5 768.89,-29.5 778.89,-34 778.89,-34"/>
<text text-anchor="middle" x="757.5" y="-37.8" font-family="Times,serif" font-size="14.00" fill="#009999">1</text>
</g>
</g>
</svg>
