<?xml version="1.0" encoding="UTF-8" standalone="no"?>
<!DOCTYPE svg PUBLIC "-//W3C//DTD SVG 1.1//EN"
 "http://www.w3.org/Graphics/SVG/1.1/DTD/svg11.dtd">
<!-- Generated by graphviz version 2.43.0 (0)
 -->
<!-- Title: G Pages: 1 -->
<svg width="206pt" height="582pt"
 viewBox="0.00 0.00 206.00 582.00" xmlns="http://www.w3.org/2000/svg" xmlns:xlink="http://www.w3.org/1999/xlink">
<g id="graph0" class="graph" transform="scale(1 1) rotate(0) translate(4 578)">
<title>G</title>
<polygon fill="white" stroke="transparent" points="-4,4 -4,-578 202,-578 202,4 -4,4"/>
<text text-anchor="middle" x="99" y="-7.8" font-family="italic" font-size="14.00">graphop</text>
<g id="clust1" class="cluster">
<title>cluster_after prunning</title>
<polygon fill="none" stroke="black" points="8,-161 8,-566 190,-566 190,-161 8,-161"/>
<text text-anchor="middle" x="99" y="-550.8" font-family="italic" font-size="14.00">after prunning</text>
</g>
<!-- abspow1 -->
<g id="node1" class="node">
<title>abspow1</title>
<ellipse fill="none" stroke="black" cx="115" cy="-114" rx="42.49" ry="18"/>
<text text-anchor="middle" x="115" y="-110.3" font-family="Times,serif" font-size="14.00">abspow1</text>
</g>
<!-- abs_a_minus_ab_cubed -->
<g id="node2" class="node">
<title>abs_a_minus_ab_cubed</title>
<polygon fill="none" stroke="black" points="188,-59 42,-59 42,-23 188,-23 188,-59"/>
<text text-anchor="middle" x="115" y="-37.3" font-family="Times,serif" font-size="14.00">abs_a_minus_ab_cubed</text>
</g>
<!-- abspow1&#45;&gt;abs_a_minus_ab_cubed -->
<g id="edge8" class="edge">
<title>abspow1&#45;&gt;abs_a_minus_ab_cubed</title>
<path fill="none" stroke="black" d="M115,-95.81C115,-87.79 115,-78.05 115,-69.07"/>
<polygon fill="black" stroke="black" points="118.5,-69.03 115,-59.03 111.5,-69.03 118.5,-69.03"/>
</g>
<!-- a -->
<g id="node3" class="node">
<title>a</title>
<polygon fill="none" stroke="#990000" stroke-width="3" points="102,-511.44 129,-499 156,-511.44 155.97,-531.56 102.03,-531.56 102,-511.44"/>
<text text-anchor="middle" x="129" y="-513.3" font-family="Times,serif" font-size="14.00">a</text>
</g>
<!-- mul1 -->
<g id="node4" class="node">
<title>mul1</title>
<ellipse fill="wheat" stroke="black" cx="48" cy="-444" rx="29.5" ry="18"/>
<text text-anchor="middle" x="48" y="-440.3" font-family="Times,serif" font-size="14.00">mul1</text>
</g>
<!-- a&#45;&gt;mul1 -->
<g id="edge1" class="edge">
<title>a&#45;&gt;mul1</title>
<path fill="none" stroke="black" d="M115.99,-504.59C104.06,-494.14 86.12,-478.41 71.66,-465.74"/>
<polygon fill="black" stroke="black" points="73.88,-463.03 64.05,-459.07 69.26,-468.29 73.88,-463.03"/>
</g>
<!-- ab -->
<g id="node6" class="node">
<title>ab</title>
<polygon fill="none" stroke="#990000" stroke-width="3" points="142,-370 88,-370 88,-334 142,-334 142,-370"/>
<text text-anchor="middle" x="115" y="-348.3" font-family="Times,serif" font-size="14.00">ab</text>
</g>
<!-- a&#45;&gt;ab -->
<g id="edge12" class="edge">
<title>a&#45;&gt;ab</title>
<path fill="none" stroke="#009999" stroke-width="3" stroke-dasharray="1,5" d="M127.58,-499.47C125.17,-471.43 120.26,-414.26 117.34,-380.23"/>
<polygon fill="#009999" stroke="#009999" stroke-width="3" points="116.47,-370.06 121.8,-379.64 117.89,-374.96 118.32,-379.94 117.32,-380.02 116.32,-380.11 115.9,-375.13 112.84,-380.41 116.47,-370.06 116.47,-370.06"/>
<text text-anchor="middle" x="130.5" y="-439.6" font-family="bold" font-size="18.00" fill="#009999">4</text>
</g>
<!-- sub1 -->
<g id="node7" class="node">
<title>sub1</title>
<ellipse fill="wheat" stroke="black" cx="115" cy="-260" rx="27.1" ry="18"/>
<text text-anchor="middle" x="115" y="-256.3" font-family="Times,serif" font-size="14.00">sub1</text>
</g>
<!-- a&#45;&gt;sub1 -->
<g id="edge2" class="edge">
<title>a&#45;&gt;sub1</title>
<path fill="none" stroke="black" d="M132.52,-500.47C134.86,-489.71 137.9,-475.03 140,-462 146.56,-421.35 148.55,-411.11 151,-370 151.95,-354.03 154.63,-349.58 151,-334 147.01,-316.89 138.41,-299.19 130.61,-285.5"/>
<polygon fill="black" stroke="black" points="133.52,-283.54 125.41,-276.72 127.5,-287.1 133.52,-283.54"/>
</g>
<!-- b -->
<g id="node5" class="node">
<title>b</title>
<polygon fill="none" stroke="#990000" stroke-width="3" points="16,-346.44 43,-334 70,-346.44 69.97,-366.56 16.03,-366.56 16,-346.44"/>
<text text-anchor="middle" x="43" y="-348.3" font-family="Times,serif" font-size="14.00">b</text>
</g>
<!-- mul1&#45;&gt;b -->
<g id="edge9" class="edge">
<title>mul1&#45;&gt;b</title>
<path fill="none" stroke="#009999" stroke-width="3" stroke-dasharray="1,5" d="M40.98,-426.2C38.95,-420.53 37.01,-414.08 36,-408 34.28,-397.68 35.28,-386.21 37.01,-376.43"/>
<polygon fill="#009999" stroke="#009999" stroke-width="3" points="39.06,-366.6 41.42,-377.31 39.02,-371.7 37.99,-376.6 37.01,-376.39 36.03,-376.19 37.06,-371.29 32.61,-375.47 39.06,-366.6 39.06,-366.6"/>
<text text-anchor="middle" x="42.5" y="-393.6" font-family="bold" font-size="18.00" fill="#009999">1</text>
</g>
<!-- mul1&#45;&gt;ab -->
<g id="edge3" class="edge">
<title>mul1&#45;&gt;ab</title>
<path fill="none" stroke="black" d="M59.67,-427.32C69.73,-413.81 84.44,-394.05 96.17,-378.3"/>
<polygon fill="black" stroke="black" points="99.16,-380.14 102.32,-370.03 93.55,-375.96 99.16,-380.14"/>
</g>
<!-- b&#45;&gt;mul1 -->
<g id="edge4" class="edge">
<title>b&#45;&gt;mul1</title>
<path fill="none" stroke="black" d="M47.89,-366.77C49.91,-373.14 52,-380.87 53,-388 54.28,-397.15 53.89,-407.19 52.9,-416.17"/>
<polygon fill="black" stroke="black" points="49.43,-415.72 51.54,-426.1 56.37,-416.67 49.43,-415.72"/>
</g>
<!-- b&#45;&gt;sub1 -->
<g id="edge10" class="edge">
<title>b&#45;&gt;sub1</title>
<path fill="none" stroke="#009999" stroke-width="3" stroke-dasharray="1,5" d="M53.01,-338.49C64.17,-324.54 82.46,-301.68 96.28,-284.39"/>
<polygon fill="#009999" stroke="#009999" stroke-width="3" points="102.66,-276.42 99.93,-287.04 100.32,-280.95 97.2,-284.85 96.42,-284.23 95.64,-283.6 98.76,-279.7 92.9,-281.42 102.66,-276.42 102.66,-276.42"/>
<text text-anchor="middle" x="91.5" y="-301.6" font-family="bold" font-size="18.00" fill="#009999">2</text>
</g>
<!-- ab&#45;&gt;sub1 -->
<g id="edge5" class="edge">
<title>ab&#45;&gt;sub1</title>
<path fill="none" stroke="black" d="M115,-333.65C115,-320.82 115,-303.11 115,-288.38"/>
<polygon fill="black" stroke="black" points="118.5,-288.3 115,-278.3 111.5,-288.3 118.5,-288.3"/>
</g>
<!-- sub1&#45;&gt;a -->
<g id="edge11" class="edge">
<title>sub1&#45;&gt;a</title>
<path fill="none" stroke="#009999" stroke-width="3" stroke-dasharray="1,5" d="M129.68,-275.28C135.13,-281.25 140.97,-288.54 145,-296 153.36,-311.47 153.53,-316.59 156,-334 164.01,-390.46 158.42,-406.13 147,-462 144.96,-471.99 141.64,-482.7 138.4,-491.92"/>
<polygon fill="#009999" stroke="#009999" stroke-width="3" points="134.86,-501.59 134.07,-490.65 135.64,-496.55 137.36,-491.86 138.3,-492.2 139.24,-492.55 137.52,-497.24 142.52,-493.75 134.86,-501.59 134.86,-501.59"/>
<text text-anchor="middle" x="165.5" y="-393.6" font-family="bold" font-size="18.00" fill="#009999">3</text>
</g>
<!-- a_minus_ab -->
<g id="node8" class="node">
<title>a_minus_ab</title>
<polygon fill="wheat" stroke="black" points="181.86,-192.56 115,-205 48.14,-192.56 48.2,-172.44 181.8,-172.44 181.86,-192.56"/>
<text text-anchor="middle" x="115" y="-183.3" font-family="Times,serif" font-size="14.00">a_minus_ab</text>
</g>
<!-- sub1&#45;&gt;a_minus_ab -->
<g id="edge6" class="edge">
<title>sub1&#45;&gt;a_minus_ab</title>
<path fill="none" stroke="black" d="M115,-241.81C115,-233.79 115,-224.05 115,-215.07"/>
<polygon fill="black" stroke="black" points="118.5,-215.03 115,-205.03 111.5,-215.03 118.5,-215.03"/>
</g>
<!-- a_minus_ab&#45;&gt;abspow1 -->
<g id="edge7" class="edge">
<title>a_minus_ab&#45;&gt;abspow1</title>
<path fill="none" stroke="black" d="M115,-172.31C115,-163.82 115,-152.6 115,-142.35"/>
<polygon fill="black" stroke="black" points="118.5,-142.16 115,-132.16 111.5,-142.16 118.5,-142.16"/>
</g>
</g>
</svg>
