<?xml version="1.0" encoding="UTF-8" standalone="no"?>
<!DOCTYPE svg PUBLIC "-//W3C//DTD SVG 1.1//EN"
 "http://www.w3.org/Graphics/SVG/1.1/DTD/svg11.dtd">
<!-- Generated by graphviz version 2.40.1 (20161225.0304)
 -->
<!-- Title: G Pages: 1 -->
<svg width="190pt" height="433pt"
 viewBox="0.00 0.00 189.63 433.29" xmlns="http://www.w3.org/2000/svg" xmlns:xlink="http://www.w3.org/1999/xlink">
<g id="graph0" class="graph" transform="scale(1 1) rotate(0) translate(4 429.2884)">
<title>G</title>
<polygon fill="#ffffff" stroke="transparent" points="-4,4 -4,-429.2884 185.6294,-429.2884 185.6294,4 -4,4"/>
<!-- a -->
<g id="node1" class="node">
<title>a</title>
<polygon fill="#f5deb3" stroke="#000000" points="60.6294,-401.726 87.6294,-389.2884 114.6294,-401.726 114.6042,-421.8507 60.6546,-421.8507 60.6294,-401.726"/>
<text text-anchor="middle" x="87.6294" y="-403.5884" font-family="Times,serif" font-size="14.00" fill="#000000">a</text>
</g>
<!-- must run -->
<g id="node2" class="node">
<title>must run</title>
<ellipse fill="#f5deb3" stroke="#000000" cx="87.6294" cy="-310.0421" rx="42.4939" ry="42.4939"/>
<text text-anchor="middle" x="87.6294" y="-306.3421" font-family="Times,serif" font-size="14.00" fill="#000000">must run</text>
</g>
<!-- a&#45;&gt;must run -->
<g id="edge1" class="edge">
<title>a&#45;&gt;must run</title>
<path fill="none" stroke="#000000" d="M87.6294,-388.9971C87.6294,-381.401 87.6294,-372.1605 87.6294,-362.7147"/>
<polygon fill="#000000" stroke="#000000" points="91.1295,-362.4526 87.6294,-352.4526 84.1295,-362.4526 91.1295,-362.4526"/>
</g>
<!-- overriden -->
<g id="node3" class="node">
<title>overriden</title>
<polygon fill="#f5deb3" stroke="#0000ff" stroke-width="3" points="-.1297,-188.2335 54.6294,-175.7958 109.3884,-188.2335 109.3373,-208.3582 -.0786,-208.3582 -.1297,-188.2335"/>
<text text-anchor="middle" x="54.6294" y="-190.0958" font-family="Times,serif" font-size="14.00" fill="#000000">overriden</text>
</g>
<!-- must run&#45;&gt;overriden -->
<g id="edge2" class="edge">
<title>must run&#45;&gt;overriden</title>
<path fill="none" stroke="#f0ceae" stroke-width="5" d="M74.5164,-269.6343C72.478,-263.0247 70.4475,-256.2341 68.6294,-249.7958 65.7492,-239.5971 62.8595,-228.2684 60.4598,-218.4836"/>
<polygon fill="#f0ceae" stroke="#f0ceae" stroke-width="5" points="64.6727,-217.2915 58.0716,-208.5986 56.1674,-219.3464 64.6727,-217.2915"/>
</g>
<!-- must run&#45;&gt;overriden -->
<g id="edge7" class="edge">
<title>must run&#45;&gt;overriden</title>
<path fill="none" stroke="#009999" stroke-width="3" stroke-dasharray="1,5" d="M76.6655,-269.1545C73.2102,-256.5147 69.3285,-242.5607 65.6294,-229.7958 64.547,-226.061 63.3736,-222.1176 62.2099,-218.2643"/>
<polygon fill="#009999" stroke="#009999" stroke-width="3" points="59.2214,-208.48 66.4464,-216.7293 61.6384,-212.9698 63.099,-217.7517 62.1426,-218.0439 61.1863,-218.336 59.7256,-213.5541 57.8389,-219.3584 59.2214,-208.48 59.2214,-208.48"/>
<text text-anchor="middle" x="78.1294" y="-235.3958" font-family="bold" font-size="18.00" fill="#009999">1</text>
</g>
<!-- calced -->
<g id="node4" class="node">
<title>calced</title>
<polygon fill="#f5deb3" stroke="#000000" points="181.6294,-211.7958 127.6294,-211.7958 127.6294,-175.7958 181.6294,-175.7958 181.6294,-211.7958"/>
<text text-anchor="middle" x="154.6294" y="-190.0958" font-family="Times,serif" font-size="14.00" fill="#000000">calced</text>
</g>
<!-- must run&#45;&gt;calced -->
<g id="edge3" class="edge">
<title>must run&#45;&gt;calced</title>
<path fill="none" stroke="#000000" d="M108.8286,-273.2611C118.6071,-256.2952 130.0094,-236.512 138.9909,-220.9289"/>
<polygon fill="#000000" stroke="#000000" points="142.2729,-222.2435 144.2341,-211.8318 136.2081,-218.748 142.2729,-222.2435"/>
</g>
<!-- add -->
<g id="node5" class="node">
<title>add</title>
<ellipse fill="#f5deb3" stroke="#000000" cx="87.6294" cy="-96.3979" rx="23.2963" ry="23.2963"/>
<text text-anchor="middle" x="87.6294" y="-92.6979" font-family="Times,serif" font-size="14.00" fill="#000000">add</text>
</g>
<!-- overriden&#45;&gt;add -->
<g id="edge4" class="edge">
<title>overriden&#45;&gt;add</title>
<path fill="none" stroke="#000000" d="M58.1068,-176.3961C60.5538,-165.2158 64.1811,-150.4664 68.6294,-137.7958 69.8818,-134.2283 71.3292,-130.5493 72.855,-126.925"/>
<polygon fill="#000000" stroke="#000000" points="76.1476,-128.1335 76.997,-117.5728 69.7473,-125.2988 76.1476,-128.1335"/>
</g>
<!-- overriden&#45;&gt;add -->
<g id="edge8" class="edge">
<title>overriden&#45;&gt;add</title>
<path fill="none" stroke="#009999" stroke-width="3" stroke-dasharray="1,5" d="M60.3775,-176.8304C64.9041,-163.4706 71.3428,-144.467 76.8252,-128.286"/>
<polygon fill="#009999" stroke="#009999" stroke-width="3" points="80.0895,-118.6514 81.1425,-129.5666 79.4321,-123.7079 77.8276,-128.4434 76.8805,-128.1225 75.9334,-127.8016 77.5379,-123.0661 72.6185,-126.6785 80.0895,-118.6514 80.0895,-118.6514"/>
<text text-anchor="middle" x="80.1294" y="-143.3958" font-family="bold" font-size="18.00" fill="#009999">2</text>
</g>
<!-- calced&#45;&gt;add -->
<g id="edge5" class="edge">
<title>calced&#45;&gt;add</title>
<path fill="none" stroke="#000000" d="M142.0272,-175.476C132.1761,-161.1556 118.311,-140.9998 107.0445,-124.6217"/>
<polygon fill="#000000" stroke="#000000" points="109.6458,-122.2277 101.0946,-115.9724 103.8786,-126.1949 109.6458,-122.2277"/>
</g>
<!-- asked -->
<g id="node6" class="node">
<title>asked</title>
<polygon fill="#f5deb3" stroke="#000000" points="114.6294,-36 60.6294,-36 60.6294,0 114.6294,0 114.6294,-36"/>
<text text-anchor="middle" x="87.6294" y="-14.3" font-family="Times,serif" font-size="14.00" fill="#000000">asked</text>
</g>
<!-- add&#45;&gt;asked -->
<g id="edge6" class="edge">
<title>add&#45;&gt;asked</title>
<path fill="none" stroke="#000000" d="M87.6294,-72.876C87.6294,-64.4749 87.6294,-54.9236 87.6294,-46.1708"/>
<polygon fill="#000000" stroke="#000000" points="91.1295,-46.0214 87.6294,-36.0214 84.1295,-46.0215 91.1295,-46.0214"/>
</g>
</g>
</svg>
